<?xml version="1.0" encoding="UTF-8" standalone="no"?>
<svg
   xmlns:dc="http://purl.org/dc/elements/1.1/"
   xmlns:cc="http://creativecommons.org/ns#"
   xmlns:rdf="http://www.w3.org/1999/02/22-rdf-syntax-ns#"
   xmlns:svg="http://www.w3.org/2000/svg"
   xmlns="http://www.w3.org/2000/svg"
   height="10.934402"
   width="14.028082"
   viewBox="0 0 14.028082 10.934402"
   version="1.1"
   id="SVGRoot">
  <metadata
     id="metadata9">
    <rdf:RDF>
      <cc:Work
         rdf:about="">
        <dc:format>image/svg+xml</dc:format>
        <dc:type
           rdf:resource="http://purl.org/dc/dcmitype/StillImage" />
        <dc:title></dc:title>
      </cc:Work>
    </rdf:RDF>
  </metadata>
  <defs
     id="defs7" />
  <g
     transform="translate(-0.98595922,-5.0655979)"
     id="layer1">
    <path
       id="path3162"
       d="m 3.3877768,12.468626 c 0.191729,-0.06805 0.869874,0.02485 0.776411,-0.369047 -0.04751,-0.200611 -0.116576,-0.402496 -0.171103,-0.602749 -0.02996,-0.110317 -0.09771,-0.223797 -0.22317,-0.220071 -0.205822,0.0061 -0.303076,0.400541 -0.35564,0.547514 -0.06518,0.182166 -0.226694,0.586047 0.02519,0.69887 0.07126,0.03191 0.145204,-0.05811 0.09611,-0.120739 -0.10992,-0.140364 -0.02437,-0.336741 0.0266,-0.487086 0.04383,-0.129379 0.08363,-0.258782 0.147056,-0.380375 0.01774,-0.0341 0.04234,-0.06939 0.07127,-0.0951 0.04387,-0.03883 0.07766,0.135545 0.08695,0.167201 0.03303,0.111439 0.05732,0.225301 0.08675,0.33771 0.01627,0.06244 0.03439,0.09484 0.05713,0.1567 0.06702,0.181203 -0.318185,0.187501 -0.367508,0.191619 -0.107979,0.009 -0.20152,0.03295 -0.297321,0.08216 -0.05186,0.02658 -0.01319,0.112737 0.04127,0.09339 m 1.511903,0.06006 c 0.196084,0.03599 0.389135,-0.04243 0.584477,-0.06781 0.114078,-0.01481 0.19321,-0.177708 0.212554,-0.274338 0.06068,-0.303256 -0.04889,-0.683689 -0.176748,-0.959515 -0.153864,-0.331912 -0.489183,-0.133312 -0.571148,0.132309 -0.07605,0.246493 -0.105159,0.47635 -0.121639,0.732611 -0.01058,0.164782 -0.019,0.377883 0.143252,0.469331 0.06034,0.03399 0.130325,-0.03383 0.0964,-0.095 -0.119995,-0.215946 -0.06909,-0.575116 -0.02076,-0.807961 0.03043,-0.147273 0.09016,-0.27418 0.170664,-0.40003 0.102027,-0.159544 0.210809,0.260772 0.217059,0.297774 0.03347,0.199334 0.124859,0.346104 0.104183,0.562228 -0.01856,0.194527 -0.163254,0.185962 -0.314908,0.213075 -0.110026,0.01965 -0.209289,0.07056 -0.321926,0.07995 -0.06919,0.0056 -0.06594,0.105538 -0.0015,0.117344 m -0.02369,1.887983 c -0.02218,-0.131241 0.02575,-0.263867 0.02271,-0.394985 -0.0039,-0.170719 0.0258,-0.327608 0.016,-0.497582 -0.01,-0.171459 0.154007,-0.450542 0.327354,-0.244788 0.05771,0.06847 0.0893,0.161344 0.128333,0.241383 0.09689,0.198642 0.01123,0.507318 0.02024,0.723174 0.03054,-0.02581 0.06116,-0.05163 0.0917,-0.07745 -0.01904,-0.0046 -0.03852,-0.0059 -0.05817,-0.004 -0.122448,-5.67e-4 -0.04417,0.110463 -0.01388,0.145027 0.0121,0.0079 0.02421,0.01564 0.03634,0.0235 0.04602,0.02102 0.115626,-0.02007 0.113256,-0.07289 -0.01683,-0.379774 0.03724,-0.673431 -0.156754,-1.014373 -0.08372,-0.147069 -0.310037,-0.285578 -0.470566,-0.154825 -0.228222,0.185814 -0.150447,0.45641 -0.184118,0.716843 -0.02312,0.178784 -0.04008,0.472367 0.04512,0.638475 0.02275,0.04441 0.09067,0.02142 0.08245,-0.02755 m -1.454295,0.0019 c 0.153233,-0.386568 -0.09815,-0.940526 0.206389,-1.283235 0.2301,-0.259124 0.303455,0.454531 0.306686,0.540559 0.0094,0.249012 0.08163,0.48819 0.07662,0.738951 -0.0019,0.101537 0.155769,0.0852 0.157144,-0.01565 0.0028,-0.208166 -0.0419,-0.405936 -0.07838,-0.609874 -0.02032,-0.113544 -0.0075,-0.238816 -0.02161,-0.354442 -0.02061,-0.169298 -0.08206,-0.433533 -0.27902,-0.480517 -0.620665,-0.148231 -0.382896,1.212742 -0.422483,1.442798 -0.0054,0.03099 0.04155,0.05448 0.05467,0.02141 m -0.02778,-0.336889 c -9.92e-4,-0.07782 -0.01126,-0.154886 -0.01166,-0.232654 -4.25e-4,-0.08499 0.01944,-0.156528 0.03941,-0.237455 0.01339,-0.05407 -0.06744,-0.08313 -0.08303,-0.02816 -0.04393,0.154683 0.03675,0.341597 0.04645,0.498085 2.83e-4,0.0056 0.0089,0.0059 0.0088,4.25e-4 m 8.6897172,-1.403017 c 0.268704,-0.02722 0.56389,-0.01167 0.562153,-0.350964 -9.91e-4,-0.200891 -0.100823,-0.418942 -0.182592,-0.59904 -0.07078,-0.156042 -0.208054,-0.212202 -0.312129,-0.05255 -0.162096,0.248034 -0.165923,0.698918 -0.08826,0.973751 0.02011,0.07119 0.122537,0.06788 0.130203,-0.0088 0.01841,-0.183541 -0.03086,-0.373271 -0.02199,-0.559486 0.0057,-0.120049 0.04107,-0.276635 0.123682,-0.36907 -4.25e-4,5.66e-4 0.07198,0.148179 0.07602,0.158795 0.04024,0.105368 0.0819,0.212421 0.108255,0.32212 0.01996,0.0833 0.05031,0.223956 -0.03049,0.285621 -0.04159,0.03194 -0.133757,0.03133 -0.183582,0.04243 -0.06859,0.01524 -0.137126,0.03124 -0.20572,0.04677 -0.06424,0.01457 -0.03834,0.116747 0.02443,0.110386 m -0.03779,1.760893 c 0.104523,-0.171972 0.05269,-0.378866 0.02085,-0.565455 -0.02968,-0.173421 -0.04324,-0.353934 0.04917,-0.511381 0.09349,-0.159562 0.271502,-0.08879 0.34636,0.02284 0.178875,0.267174 0.154813,0.709394 0.115738,1.014878 -0.01,0.07767 0.11261,0.09493 0.132965,0.02186 0.008,-0.02863 0.0096,-0.04447 0.0089,-0.07507 -0.0013,-0.05242 -0.07699,-0.0696 -0.105589,-0.02929 -0.0169,0.02355 -0.02422,0.03835 -0.0335,0.06536 0.04433,0.0073 0.08874,0.01459 0.132964,0.02185 0.04444,-0.353242 0.07612,-1.00308 -0.274914,-1.222085 -0.170881,-0.106563 -0.396763,-0.0016 -0.465902,0.175659 -0.06033,0.154772 -0.05719,0.30689 -0.03676,0.469811 0.02269,0.181166 0.101327,0.386475 0.0189,0.562414 -0.02829,0.06017 0.05628,0.105489 0.09087,0.04858 m -1.406847,-0.01529 c 0.08009,-0.172871 0.06321,-0.367722 0.04658,-0.55244 -0.01184,-0.130956 -0.02502,-0.261999 -0.0068,-0.392953 0.01978,-0.142208 0.189117,-0.251974 0.318327,-0.161364 0.152824,0.107122 0.157421,0.429077 0.173458,0.593882 0.0182,0.187354 0.01397,0.380332 0.05411,0.564904 0.01871,0.0859 0.150551,0.05571 0.132548,-0.02988 -0.07335,-0.3497 0.04534,-1.073976 -0.352934,-1.263038 -0.180541,-0.08561 -0.375214,0.07147 -0.426259,0.233909 -0.09997,0.318094 0.113718,0.668213 0.004,0.985593 -0.01142,0.03315 0.04249,0.05282 0.05702,0.02146 m 0.711874,-1.925056 c -0.09938,-0.151711 -0.08552,-0.435081 -0.123909,-0.609549 -0.03107,-0.1409 -0.0911,-0.404928 -0.262521,-0.444443 -0.55728,-0.128307 -0.298708,0.964619 -0.353328,1.199927 -0.01932,0.0836 0.108734,0.124319 0.127639,0.0401 0.05346,-0.237673 -0.0032,-0.486255 -0.0056,-0.727096 -0.0011,-0.109972 0.005,-0.248885 0.07464,-0.33957 0.07766,-0.101022 0.169512,-0.0022 0.20672,0.06823 0.142591,0.269922 0.06516,0.643963 0.23892,0.894128 0.04728,0.06789 0.141464,-0.01457 0.09742,-0.08174 m -0.74852,0.200171 c 0.115843,0.03877 0.224964,0.04357 0.344942,0.02255 0.119235,-0.02077 0.255398,-0.0346 0.368599,-0.07406 0.05808,-0.02018 0.04053,-0.104146 -0.0084,-0.121605 -0.09193,-0.03267 -0.188637,7.09e-4 -0.279783,0.02548 -0.130681,0.03555 -0.254653,0.0704 -0.390782,0.04441 -0.05929,-0.01128 -0.095,0.083 -0.0345,0.103201 m 3.655777,-2.7545618 c 0.02701,0.7969818 0.06765,1.5930138 0.07746,2.3905108 0.0098,0.778751 0.113955,1.585425 0.05743,2.362504 -0.0078,0.106781 0.157025,0.12467 0.16576,0.01718 0.05949,-0.731254 -0.04243,-1.495423 -0.06102,-2.229656 -0.02153,-0.851779 -0.08143,-1.697594 -0.150765,-2.5470088 -0.0041,-0.05073 -0.09059,-0.04419 -0.08893,0.0064 m -0.443748,0.08059 c 0.01962,0.770158 -0.03108,1.540047 0.01962,2.309489 0.02834,0.430227 0.07347,0.847209 0.05302,1.279928 -0.01349,0.286143 -0.0737,0.582086 -0.0374,0.865496 0.0094,0.07299 0.118319,0.06336 0.113626,-0.0101 -0.02039,-0.321437 0.03225,-0.663197 0.04586,-0.987775 0.016,-0.386792 -0.03106,-0.770295 -0.06488,-1.154905 -0.06775,-0.769318 0.0066,-1.5418 -0.05377,-2.311467 -0.0038,-0.05 -0.07734,-0.03921 -0.07609,0.0094 M 13.97334,9.1825912 c 0.09239,0.188148 0.283256,0.295136 0.343478,0.499541 0.05275,0.179571 -0.100234,0.279406 -0.256168,0.279972 -0.09342,4.25e-4 -0.149621,0.01752 -0.221037,0.07308 -0.05962,0.04628 0.0022,0.122175 0.06134,0.115948 0.248528,-0.02614 0.562715,-0.04244 0.57055,-0.3754794 0.0074,-0.316142 -0.265716,-0.420622 -0.424864,-0.643755 -0.03031,-0.04243 -0.09481,0.0067 -0.07331,0.0507 m -0.09504,0.8460844 c -0.04789,0.11547 -0.141331,-0.1600584 -0.132115,-0.1342044 -0.03548,-0.09899 -0.0069,-0.191808 0.03737,-0.281931 0.05011,-0.102398 0.132198,-0.194148 0.222326,-0.259117 0.08942,-0.06446 0.136259,-0.157475 0.03198,-0.230325 -0.03214,-0.02236 -0.07991,0.01109 -0.06939,0.04887 0.01007,0.03668 -0.16051,0.199845 -0.187647,0.236702 -0.06002,0.08174 -0.131446,0.180596 -0.150477,0.282363 -0.03216,0.172033 0.03527,0.3418834 0.169868,0.4525674 0.01169,0.0095 0.02805,0.01089 0.04063,0.0025 0.0455,-0.03087 0.06901,-0.04894 0.08338,-0.102508 0.0082,-0.03032 -0.03401,-0.04324 -0.04591,-0.01475 M 2.5035328,9.6419862 c 0.0695,0.9171858 -0.09942,1.8572908 -0.05222,2.7812698 0.02385,0.466323 0.0149,0.908809 -0.01572,1.373657 -0.01336,0.204414 -0.07648,0.492641 0.01414,0.68709 0.04397,0.09444 0.190961,0.0365 0.150485,-0.0606 -0.09708,-0.233218 0.03048,-0.703469 0.03245,-0.929575 0.0036,-0.412912 -0.02077,-0.824453 -0.04599,-1.236407 -0.05297,-0.864255 0.08878,-1.765145 -0.03334,-2.6202838 -0.004,-0.02797 -0.05189,-0.02347 -0.04975,0.0048 m -0.637675,0.01583 c 0.07268,0.8033038 -0.05406,1.5995088 -0.02441,2.4011968 0.02707,0.733426 -0.02696,1.464895 -0.0036,2.199769 0.0022,0.0696 0.107745,0.06365 0.107272,-0.0053 -0.0051,-0.72927 0.0021,-1.459505 -0.01615,-2.188321 -0.02004,-0.807069 0.07942,-1.607652 -0.02838,-2.4120288 -0.003,-0.0226 -0.03682,-0.01766 -0.03477,0.0047 m 0.275774,-0.585812 c -0.061,0.05266 -0.14263,0.08879 -0.187629,0.157491 l 0.07274,-0.02227 c -0.0169,-0.008 -0.03316,-0.01629 -0.05113,-0.02173 -0.0277,-0.0084 -0.06309,0.0028 -0.07727,0.02939 -0.06007,0.112393 -0.151444,0.248864 -0.1189,0.382465 0.03802,0.156583 0.264125,0.185641 0.393598,0.196657 0.18262,0.01557 0.366158,-0.047 0.456998,-0.211475 0.03661,-0.0664 0.02724,-0.117273 0.0142,-0.187879 -0.01408,-0.07682 -0.07766,-0.216335 -0.139012,-0.265091 -0.05286,-0.04187 -0.149342,-0.04839 -0.212367,-0.07011 -0.0365,-0.01252 -0.0392,-0.04236 -0.06995,-0.06199 -0.06453,-0.04124 -0.150967,0.04094 -0.132313,0.114295 0.01481,0.0584 0.07582,0.09873 0.129771,0.116068 0.04132,0.01325 0.08371,0.0195 0.12633,0.02667 0.0174,0.0026 0.03484,0.0054 0.05216,0.0083 0.04581,0.0071 -0.0093,-0.02163 0.02518,0.02323 0.05527,0.07153 0.138223,0.158279 0.08823,0.251601 -0.07417,0.138773 -0.274454,0.158521 -0.41213,0.121119 -0.07112,-0.01917 -0.202982,-0.02638 -0.197963,-0.12727 0.0042,-0.08444 0.07168,-0.174043 0.111555,-0.245243 -0.02582,0.0098 -0.05154,0.01955 -0.07737,0.0293 0.02018,0.0065 0.04114,0.009 0.06197,0.01234 0.02613,0.0043 0.05719,-0.01475 0.06479,-0.04014 0.01921,-0.06438 0.08535,-0.115936 0.127999,-0.163786 0.0271,-0.03025 -0.01845,-0.0787 -0.04965,-0.05181 m -0.579245,6.0361788 c -0.18704,-0.02026 -0.68058896,0.189947 -0.556531,0.45587 0.112252,0.240517 0.65234,0.141944 0.85531,0.151643 0.853819,0.04105 1.702607,0.112372 2.552827,0.201828 0.9503,0.09995 1.902105,0.0877 2.8562,0.07135 1.803185,-0.03114 3.6299512,-0.09397 5.4311972,-0.0079 0.573549,0.02756 1.182263,0.0187 1.755805,-0.03791 0.313824,-0.03098 0.630888,-0.176897 0.541721,-0.538163 -0.03303,-0.133841 -0.243987,-0.09448 -0.211064,0.04068 0.08799,0.360495 -0.658847,0.299086 -0.850815,0.311009 -0.651696,0.04052 -1.302296,0.0058 -1.953471,0.01411 -1.333093,0.01699 -2.6663432,0.02691 -3.9995842,0.03179 -1.252783,0.0047 -2.492381,0.05327 -3.7414,-0.0765 -0.664353,-0.06901 -1.328745,-0.129311 -1.996317,-0.155297 -0.242688,-0.0094 -0.484266,-0.0084 -0.727039,2.83e-4 -0.04414,0.0016 -0.09052,0.01383 -0.133736,0.02122 -0.06387,-0.05027 -0.12777,-0.100537 -0.191642,-0.150808 0.09627,-0.11353 0.218686,-0.18539 0.367039,-0.215777 0.06741,-0.0043 0.068,-0.110171 0.0015,-0.117344 m -0.13569,0.107525 c 0.299602,0.18342 0.712337,0.13313 1.050132,0.14947 0.684309,0.03289 1.361627,0.100641 2.048326,0.114736 1.359331,0.02794 2.71524,0.02568 4.074585,0.01627 1.378353,-0.0095 2.7558842,0.09519 4.1337912,0.06332 0.622869,-0.01443 1.253105,-0.01882 1.873728,-0.05711 0.311113,-0.0191 0.408054,-0.25077 0.335583,-0.540076 -0.0245,-0.09801 -0.175625,-0.04299 -0.147931,0.055 0.125125,0.444504 -1.192442,0.353113 -1.366379,0.362492 -0.59158,0.03196 -1.183976,0.03934 -1.776123,0.02635 -1.139431,-0.02494 -2.2781532,-0.07448 -3.4181652,-0.05907 -1.122974,0.01509 -2.243531,0.01146 -3.366459,-0.01115 -0.574256,-0.01167 -1.148929,-0.01469 -1.722316,-0.05295 -0.273143,-0.01815 -0.544899,-0.05456 -0.818537,-0.06584 -0.278247,-0.01143 -0.607999,0.05287 -0.870833,-0.06265 -0.04086,-0.01797 -0.06619,0.03872 -0.02944,0.06127 m 0.147378,-0.545841 c -0.05944,0.04627 -0.127965,0.07147 -0.177143,0.130216 -0.04161,0.04956 -0.05978,0.124653 -0.07516,0.185888 -0.02891,0.114653 0.03242,0.360699 0.199864,0.274576 0.02469,-0.01281 0.04469,-0.04711 0.03475,-0.07528 -0.01692,-0.04813 -0.061,-0.07164 -0.07317,-0.12083 -0.01054,-0.04226 -1.41e-4,-0.091 0.0073,-0.133086 0.0053,-0.02995 0.0067,-0.08786 0.02502,-0.110946 0.02936,-0.03699 0.07276,-0.06397 0.103842,-0.100599 0.02444,-0.02889 -0.0143,-0.07408 -0.04531,-0.04993 m 4.417297,0.30641 c 0.489905,0.266266 1.34062,0.09445 1.876533,0.08031 0.98413,-0.0258 1.984832,-0.03257 2.9682392,-0.02079 0.959858,0.01145 1.918175,-0.03899 2.878177,-0.03042 0.283784,0.0026 1.070402,0.215866 1.207425,-0.154305 0.02414,-0.06506 -0.06051,-0.111593 -0.104065,-0.05882 -0.155708,0.188297 -0.519029,0.09649 -0.71964,0.07823 -0.288182,-0.02629 -0.581682,-0.01495 -0.870648,-0.01487 -0.796389,2.84e-4 -1.591785,0.04087 -2.38872,0.04163 -0.812779,7.09e-4 -1.6250702,0.03452 -2.4393212,0.02971 -0.346743,-0.0021 -0.688544,0.01497 -1.034249,0.03541 -0.4038,0.02367 -0.95129,0.07735 -1.352291,-0.03833 -0.03122,-0.0091 -0.0498,0.03687 -0.02137,0.05232 m -4.598056,-0.659529 c -0.246961,0.662096 0.415676,0.598695 0.910834,0.586624 0.948047,-0.02298 1.89547,0.112019 2.846876,0.100048 0.05751,-7.08e-4 0.06967,-0.09238 0.01079,-0.101621 -0.623503,-0.09753 -1.262052,-0.06854 -1.89001,-0.132529 -0.323274,-0.03299 -0.639141,-0.05091 -0.964088,-0.04623 -0.325874,0.0047 -0.869268,0.04466 -0.817365,-0.393205 0.0071,-0.05978 -0.07892,-0.06143 -0.09699,-0.01305 m -0.08536,0.02263 c 0.162325,0.14497 0.410522,0.124081 0.615327,0.121202 0.495023,-0.007 1.002295,0.02021 1.496297,-0.006 0.309964,-0.01649 0.609984,0.03284 0.916696,0.06625 0.29916,0.03255 0.600805,0.0061 0.901381,0.04023 0.570176,0.06469 1.132595,0.09078 1.708638,0.08603 1.343014,-0.01104 2.671444,0.01972 4.0156522,-0.03742 0.742135,-0.03165 1.480838,-0.0104 2.222853,0.0055 0.310935,0.0067 1.365177,-0.20804 1.429246,0.188064 0.02224,0.136765 0.23359,0.09607 0.211156,-0.04066 -0.03673,-0.222837 -0.08721,-0.443798 -0.384214,-0.398668 -0.558842,0.08502 -1.169426,0.04404 -1.734311,0.03095 -1.426961,-0.03329 -2.8476622,0.109098 -4.2737632,0.08535 -0.609698,-0.0102 -1.218609,-0.04089 -1.828493,-0.04528 -0.353612,-0.0025 -0.714776,0.02244 -1.064701,-0.03346 -0.239713,-0.03822 -0.483467,-0.0719 -0.726613,-0.07364 -0.632204,-0.0047 -1.252054,-0.08706 -1.886091,-0.07737 -0.302821,0.0047 -0.604119,0.03828 -0.907081,0.03934 -0.19491,7.09e-4 -0.476661,0.07556 -0.652324,-0.03856 -0.05218,-0.03394 -0.103799,0.04878 -0.05962,0.08828 m 6.794238,-3.461025 c -0.266507,0.183618 0.115792,0.562263 0.276004,0.683823 0.502148,0.38098 0.562123,0.906331 0.641038,1.503699 0.0583,0.441937 0.07363,1.017605 0.0016,1.463957 -0.0225,0.139285 0.191296,0.146609 0.216804,0.01211 0.131097,-0.692432 0.01733,-1.520062 -0.138187,-2.198764 -0.06424,-0.280545 -0.121693,-0.554194 -0.348217,-0.744348 -0.100219,-0.08417 -0.768435,-0.448296 -0.601576,-0.669546 0.0238,-0.03157 -0.01401,-0.07401 -0.04743,-0.05092 m -0.126361,-0.02568 c -0.151562,0.405874 -0.553447,0.623356 -0.818469,0.95197 -0.213013,0.264148 -0.236032,0.600202 -0.269926,0.924203 -0.04302,0.410312 0.01541,0.822631 -0.0059,1.233662 -0.01106,0.213928 -0.05249,0.503153 0.05751,0.697305 0.0532,0.09378 0.206555,0.02653 0.154068,-0.06926 -0.124015,-0.226273 -0.03681,-0.670575 -0.03012,-0.909439 0.01181,-0.416332 -0.0348,-0.823949 0.02266,-1.240232 0.0994,-0.71932 0.824449,-0.89546 0.993324,-1.553725 0.01538,-0.05983 -0.08128,-0.09305 -0.103106,-0.03451 m 4.8548052,-0.843044 c 0.106531,0.292891 0.07108,0.599443 0.09311,0.905028 0.02993,0.416626 0.05366,0.833274 0.05956,1.251022 0.01153,0.804221 0.04091,1.622418 -0.0084,2.425871 -0.0065,0.106511 0.16963,0.123882 0.186002,0.01863 0.11619,-0.743147 -0.03585,-1.516176 0.0048,-2.265096 0.02615,-0.483676 -0.03322,-0.981411 -0.07255,-1.462889 -0.02677,-0.327401 0.0042,-0.620374 -0.131861,-0.9266938 -0.03284,-0.07377 -0.158056,-0.02141 -0.130646,0.05411 m -9.4874002,0.128068 c -0.0014,-0.002 -0.0029,-0.0037 -0.0045,-0.0054 0.05174,-0.06585 -0.06287,-0.1329084 -0.09305,-0.0596 -0.162775,0.39589 -0.167662,0.840467 -0.192186,1.263042 -0.02858,0.492842 -0.05285,0.983989 -0.0892,1.476864 -0.02268,0.307072 -0.0325,0.620359 -0.03514,0.928713 -0.0014,0.155864 -0.04134,0.452201 0.04744,0.594648 0.05856,0.094 0.215097,0.01925 0.156036,-0.07529 -0.09415,-0.150446 -0.03256,-0.518625 -0.02901,-0.692635 0.006,-0.301907 0.02133,-0.605611 0.043,-0.907083 0.06182,-0.85568 0.08038,-1.705384 0.204234,-2.554441 -0.03583,0.0027 -0.07164,0.0055 -0.107472,0.0081 0.02022,0.05618 0.02151,0.05451 0.07885,0.0709 0.02978,0.0084 0.04492,-0.03102 0.02091,-0.0478 m -0.125617,-0.03415 c 0.10593,0.121403 0.229088,0.121476 0.388424,0.124432 0.338943,0.0063 0.671468,-0.01373 1.010763,-0.02277 0.949488,-0.02523 1.931535,-0.07404 2.879814,-0.01354 1.795158,0.114453 3.5918622,0.06741 5.3865952,-9.91e-4 0.11642,-0.0044 0.114936,-0.2001794 -0.0014,-0.2043304 -0.791636,-0.02843 -1.603138,0.04365 -2.39708,0.06081 -0.8127532,0.01769 -1.6287752,0.0069 -2.4414632,-0.02643 -0.760119,-0.03107 -1.487227,-0.05727 -2.247436,-0.0013 -0.38673,0.02851 -0.775419,0.04057 -1.162749,0.0189 -0.316041,-0.01781 -1.097852,0.209499 -1.362538,0.0134 -0.03293,-0.02427 -0.0815,0.0189 -0.05281,0.05185 M 10.209792,9.3419422 c 0.02237,0.155135 0.104205,0.294628 0.129682,0.450031 0.01947,0.119226 0.02744,0.2452568 0.122797,0.3312368 0.08016,0.07222 0.204235,-0.02694 0.146313,-0.119856 -0.05856,-0.094 -0.06526,-0.2190008 -0.100189,-0.3231888 -0.04456,-0.133326 -0.134197,-0.242229 -0.179698,-0.373139 -0.02385,-0.06872 -0.128803,-0.03327 -0.118911,0.03492 m -4.1641462,-0.0015 c -0.05109,0.08972 -0.169119,0.138811 -0.246396,0.205412 -0.03762,0.03244 -0.05688,0.107976 -0.07735,0.152278 -0.06316,0.136397 -0.114846,0.279668 -0.0375,0.4190688 0.05547,0.09991 0.20061,0.01987 0.173072,-0.0817 -0.03348,-0.1232228 0.03385,-0.2603538 0.071,-0.3752408 0.01357,-0.04237 0.09539,-0.09483 0.125109,-0.129836 0.04104,-0.04812 0.06911,-0.09383 0.08767,-0.153768 0.01776,-0.05763 -0.06751,-0.08576 -0.09563,-0.03629 m 0.0483,-0.135788 c -0.170797,0.436875 0.884953,0.231522 1.034028,0.229214 1.003523,-0.01558 2.02399,0.06573 3.0254622,0.0031 0.107835,-0.0068 0.125785,-0.169089 0.01094,-0.172869 -0.6871612,-0.02288 -1.3748762,0.04425 -2.0623172,0.03479 -0.323186,-0.0045 -0.641497,-0.0031 -0.965204,0.0048 -0.08918,0.0023 -0.999014,0.08315 -0.957412,-0.0713 0.01504,-0.05615 -0.06445,-0.08182 -0.08554,-0.02782 m -0.0095,0.121283 c -0.03869,-0.08953 0.695186,-0.08532 0.81524,-0.08881 0.365821,-0.01053 0.728269,-0.03592 1.094564,-0.01967 0.372575,0.01652 0.757255,-0.02809 1.132894,-0.01983 0.310775,0.0069 0.8982142,-0.05978 1.0968482,0.250586 0.06245,0.09779 0.195226,0.02078 0.172966,-0.08178 -0.118859,-0.548289 -1.2034262,-0.403265 -1.6023352,-0.41081 -0.470612,-0.0089 -0.947932,0.01417 -1.418046,0.03581 -0.441494,0.02042 -0.984073,-0.0046 -1.391314,0.182696 -0.02423,0.01116 -0.03425,0.04132 -0.03498,0.06555 -0.0023,0.08066 -0.004,0.09351 0.05773,0.143731 0.04296,0.03499 0.09849,-0.0063 0.07646,-0.05745 m 2.149031,-4.148267 c 0.130023,0.698305 0.788895,1.013228 1.323199,1.392335 0.8598332,0.610171 1.8734422,1.774721 0.6625272,2.63152 -0.09891,0.07002 0.0063,0.234684 0.112392,0.178457 0.368067,-0.194752 0.566678,-0.563266 0.653393,-0.959725 0.09636,-0.440087 -0.106168,-0.81555 -0.361492,-1.161645 -0.282584,-0.383283 -0.7107782,-0.653236 -1.0991212,-0.915649 -0.310825,-0.209903 -0.641762,-0.375711 -0.910161,-0.644602 -0.156798,-0.157132 -0.193378,-0.388029 -0.344374,-0.537816 -0.01408,-0.01385 -0.0403,-0.0044 -0.03631,0.01718 m -2.058333,3.96168 c -1.221232,-0.762523 -0.266334,-2.082305 0.558459,-2.677886 0.536717,-0.387619 1.185716,-0.658243 1.497872,-1.286968 0.04629,-0.09316 -0.106075,-0.156912 -0.150173,-0.06174 -0.224879,0.486282 -0.761461,0.820555 -1.196403,1.098603 -0.442139,0.282716 -0.866068,0.579286 -1.148048,1.033901 -0.207648,0.334768 -0.41679,0.895998 -0.236363,1.283622 0.110131,0.236621 0.374381,0.620292 0.646024,0.679032 0.03687,0.0079 0.06109,-0.04825 0.02861,-0.06853"
       style="stroke-width:0.17707992" />
  </g>
</svg>
