<?xml version="1.0" encoding="UTF-8" standalone="no"?>
<!-- Created with Inkscape (http://www.inkscape.org/) -->

<svg
   xmlns:dc="http://purl.org/dc/elements/1.1/"
   xmlns:cc="http://creativecommons.org/ns#"
   xmlns:rdf="http://www.w3.org/1999/02/22-rdf-syntax-ns#"
   xmlns:svg="http://www.w3.org/2000/svg"
   xmlns="http://www.w3.org/2000/svg"
   xmlns:sodipodi="http://sodipodi.sourceforge.net/DTD/sodipodi-0.dtd"
   xmlns:inkscape="http://www.inkscape.org/namespaces/inkscape"
   width="329.95697mm"
   height="60.954281mm"
   viewBox="0 0 329.95697 60.95428"
   version="1.1"
   id="svg3737"
   inkscape:version="0.92.1 r15371"
   sodipodi:docname="train.svg">
  <defs
     id="defs3731" />
  <sodipodi:namedview
     id="base"
     pagecolor="#ffffff"
     bordercolor="#666666"
     borderopacity="1.0"
     inkscape:pageopacity="0.0"
     inkscape:pageshadow="2"
     inkscape:zoom="0.35"
     inkscape:cx="1075.981"
     inkscape:cy="411.13695"
     inkscape:document-units="mm"
     inkscape:current-layer="layer1"
     showgrid="false"
     inkscape:window-width="1366"
     inkscape:window-height="704"
     inkscape:window-x="0"
     inkscape:window-y="27"
     inkscape:window-maximized="1"
     fit-margin-top="0"
     fit-margin-left="0"
     fit-margin-right="0"
     fit-margin-bottom="0" />
  <metadata
     id="metadata3734">
    <rdf:RDF>
      <cc:Work
         rdf:about="">
        <dc:format>image/svg+xml</dc:format>
        <dc:type
           rdf:resource="http://purl.org/dc/dcmitype/StillImage" />
        <dc:title></dc:title>
      </cc:Work>
    </rdf:RDF>
  </metadata>
  <g
     inkscape:label="Layer 1"
     inkscape:groupmode="layer"
     id="layer1"
     transform="translate(285.84842,-49.611042)">
    <path
       style="fill:#000000;stroke-width:0.12793198"
       d="m 280.55897,50.233084 c -0.23681,8.58e-4 -0.55117,0.02031 -0.96904,0.04707 -0.81664,0.05227 -1.79107,0.101282 -2.16557,0.108744 -0.37449,0.0075 -0.72409,0.08244 -0.77687,0.166676 -0.0769,0.122649 -0.10226,1.240055 -0.0392,1.726626 0.007,0.0573 0.70461,0.09556 1.54945,0.0849 0.84484,-0.01066 1.57836,0.02316 1.62996,0.0754 0.11277,0.114155 1.15419,-0.02133 1.47867,-0.192385 0.1641,-0.08655 0.20591,-0.201639 0.14485,-0.398162 -0.0472,-0.151981 -0.0943,-0.510468 -0.10458,-0.796728 -0.0236,-0.656846 -0.0371,-0.824488 -0.74761,-0.822137 z m -0.6016,0.517317 c 0.70451,0.01269 0.89517,0.186032 0.89248,0.626369 -10e-4,0.208608 -0.0455,0.38366 -0.0983,0.388951 -0.77257,0.07745 -3.23813,0.0517 -3.45402,-0.03603 -0.20403,-0.08293 -0.2865,-0.222521 -0.28492,-0.48224 0.002,-0.326452 0.0467,-0.365472 0.41802,-0.366014 0.22868,-4.51e-4 0.96617,-0.04257 1.63899,-0.09396 0.3609,-0.02756 0.65294,-0.04131 0.88778,-0.03707 z m 0.58185,2.396568 c -0.35553,-0.0018 -0.74457,-0.0026 -1.17139,-0.0028 -3.57664,-0.0023 -6.46673,0.170986 -6.78929,0.407392 -0.14523,0.106425 -0.15921,0.233802 -0.064,0.584561 0.0669,0.246681 0.14388,0.758294 0.17098,1.136709 0.0272,0.378416 0.10775,0.72433 0.17922,0.768699 0.25047,0.155492 11.89654,0.163214 12.05433,0.008 0.10981,-0.108025 0.10838,-0.451629 -0.006,-1.366584 -0.14309,-1.148051 -0.1723,-1.228168 -0.48249,-1.314017 -0.56307,-0.155835 -1.403,-0.209402 -3.89167,-0.221865 z m -1.14606,0.514247 c 1.81078,0.0094 3.49267,0.0458 4.02633,0.10375 l 0.8525,0.09265 0.083,0.821084 c 0.0457,0.451588 0.042,0.861454 -0.008,0.910734 l -2.5e-4,-2e-6 c -0.05,0.04929 -2.55986,0.07431 -5.57751,0.05596 l -5.48676,-0.03344 -0.057,-0.320183 c -0.0315,-0.176102 -0.0904,-0.585291 -0.13088,-0.909332 l -0.0736,-0.589147 1.57265,-0.07438 c 1.04933,-0.0497 2.98889,-0.06718 4.79967,-0.0577 z m -36.55793,0.40438 c -2.08758,-0.01562 -3.82063,-0.0074 -4.76779,0.03366 -2.59969,0.112792 -2.59908,0.112486 -2.67713,1.352733 l -0.0511,0.81577 3.58241,-0.03789 c 8.84981,-0.09353 19.48212,0.171784 19.79795,0.493967 0.16041,0.163616 0.71845,0.11522 1.33803,-0.116037 0.27747,-0.103552 0.31156,-0.17557 0.24528,-0.51774 -0.0423,-0.218654 -0.0755,-0.616585 -0.0738,-0.884245 0.003,-0.484622 5.8e-4,-0.487279 -0.66783,-0.626001 -1.00816,-0.209351 -10.46313,-0.467603 -16.72591,-0.51422 z m 0.41551,0.538755 c 8.18051,0.05586 16.05209,0.391785 16.37308,0.716719 0.0682,0.06908 0.084,0.330466 0.0352,0.582167 -0.0941,0.485075 -0.18819,0.550385 -0.43436,0.301196 -0.33829,-0.34243 -12.34367,-0.612616 -19.88471,-0.447517 l -3.42272,0.07484 0.004,-0.351542 c 0.002,-0.193402 0.0377,-0.473848 0.0787,-0.6232 0.0746,-0.271174 0.0822,-0.27151 5.61274,-0.259893 0.54597,0.0012 1.09276,0.0036 1.63812,0.0073 z m 6.1591,2.013524 -0.89578,0.03902 c -0.49269,0.02141 -0.92303,0.06491 -0.9561,0.09663 -0.0715,0.06856 -0.0654,0.409238 0.0821,4.651115 0.0624,1.794664 0.16689,4.896564 0.23235,6.89313 0.0792,2.416011 0.16905,3.688005 0.26866,3.802938 0.0986,0.113721 0.46662,0.176118 1.07734,0.183225 0.82269,0.0093 0.92763,-0.01664 0.92893,-0.228969 0.006,-1.020525 -0.36469,-8.729232 -0.50876,-10.574179 -0.0989,-1.267156 -0.19115,-2.879687 -0.20455,-3.583409 z m -4.56178,-0.0255 c -0.33079,-0.0065 -0.76497,0.06832 -1.03648,0.205574 -0.26652,0.134732 -0.29318,0.998429 -0.12151,3.942988 0.0595,1.020637 0.15944,2.748358 0.22223,3.839384 0.0628,1.091024 0.12056,3.221483 0.12832,4.734354 0.008,1.512872 0.038,2.85157 0.0673,2.974885 0.0573,0.241123 0.46863,0.309451 0.60009,0.09961 0.0475,-0.07576 0.35167,-0.09419 0.7479,-0.04518 0.85556,0.105843 1.05608,-0.07853 0.86918,-0.798788 -0.20082,-0.77396 -0.36638,-4.914227 -0.34479,-8.615464 0.0255,-4.348674 -0.0602,-5.881693 -0.33483,-5.987471 -0.11177,-0.04308 -0.27886,-0.153904 -0.37131,-0.246388 -0.0663,-0.06638 -0.22767,-0.09963 -0.42615,-0.103547 z m 26.55677,0.207829 c -1.79834,-0.02566 -3.51549,0.04417 -4.13429,0.187193 l -0.30403,0.07036 0.0638,3.096301 c 0.0351,1.703014 0.0848,5.082608 0.11015,7.510319 0.0255,2.427709 0.0701,4.439009 0.0992,4.469311 0.0292,0.03032 0.61327,0.09609 1.2982,0.146341 l -1e-5,2.49e-4 c 0.68493,0.05039 1.33202,0.0752 1.43769,0.05548 0.74121,-0.138366 13.10188,-0.149899 18.85004,-0.01755 1.20562,0.02776 1.40286,0.0028 1.5084,-0.191705 0.13811,-0.254297 0.44329,-5.617888 0.34757,-6.108498 -0.0464,-0.237942 -0.17058,-7.812442 -0.14625,-8.924561 0.003,-0.120862 -0.43508,-0.155441 -1.81945,-0.143522 -1.00275,0.0085 -3.11839,-0.0062 -4.70142,-0.03275 -1.58304,-0.02644 -4.0874,-0.02001 -5.56526,0.0143 -1.47786,0.03432 -3.84344,0.0015 -5.25664,-0.07302 -0.57983,-0.03059 -1.18829,-0.04982 -1.78774,-0.05837 z m -18.62825,-0.09179 -1.07604,0.01568 c -0.65883,0.0096 -1.074,0.06791 -1.07064,0.150394 0.003,0.0741 0.0746,1.344115 0.15897,2.822272 0.0844,1.478158 0.15919,3.333957 0.16627,4.123897 0.007,0.789941 0.0922,2.085795 0.1891,2.879676 0.0969,0.793883 0.20891,2.37905 0.24864,3.522711 l 0.0723,2.079373 0.8168,0.005 c 0.61775,0.0038 0.87905,-0.05217 1.07211,-0.229846 0.24667,-0.227017 0.24937,-0.275576 0.075,-1.438804 -0.21518,-1.435326 -0.41786,-6.817135 -0.39507,-10.493296 0.01,-1.572379 -0.0387,-2.797094 -0.12043,-3.036177 z m 2.44909,0.151605 c -0.10629,-0.0039 -0.26495,0.01008 -0.50197,0.03642 -0.38884,0.0433 -0.74651,0.119664 -0.79488,0.169569 -0.18925,0.1953 -0.24474,1.578864 -0.13172,3.288759 0.0651,0.985489 0.14153,2.540355 0.1696,3.455261 0.0281,0.914901 0.0778,2.527179 0.11085,3.582839 0.0759,2.429385 0.29059,4.841056 0.43941,4.938394 0.1565,0.102358 1.66909,-0.103832 1.81434,-0.24731 0.0701,-0.06929 0.0605,-0.280937 -0.0242,-0.528875 -0.0777,-0.227397 -0.13892,-0.779392 -0.13619,-1.226454 0.003,-0.447062 -0.10151,-1.806253 -0.23147,-3.020612 -0.12997,-1.214354 -0.29399,-3.964311 -0.36456,-6.110838 -0.0706,-2.146531 -0.13181,-4.009878 -0.13618,-4.140955 -0.004,-0.133164 -0.0358,-0.1897 -0.21294,-0.196199 z m -17.31263,-0.09821 c -0.24131,0.0058 -0.50175,0.04342 -0.65127,0.09922 l -0.36265,0.135469 0.0789,1.180377 c 0.0434,0.64926 0.0968,2.331892 0.1184,3.739305 0.10846,7.043131 0.14812,8.915095 0.20957,9.891951 l 0.067,1.063613 0.72389,-0.08179 c 0.3982,-0.045 0.77363,-0.127231 0.83418,-0.18257 0.061,-0.05572 0.0579,-0.891233 -0.007,-1.87233 -0.0641,-0.974527 -0.11911,-3.58554 -0.12204,-5.802015 -0.003,-2.216485 -0.0357,-4.951281 -0.0728,-6.077329 l -0.0675,-2.04736 -0.51898,-0.04115 c -0.0713,-0.0057 -0.14967,-0.0073 -0.23011,-0.0055 z m 19.97449,0.145464 c -0.0529,0.0013 -0.10932,0.0056 -0.16974,0.01295 -1.10582,0.134732 -1.17652,0.273518 -0.9524,1.865487 0.0962,0.6828 0.14832,2.854043 0.14275,5.937823 -0.008,4.347596 0.0674,6.837179 0.22166,7.335836 0.0407,0.131684 0.24906,0.151192 0.91676,0.0858 0.47529,-0.04655 0.9134,-0.113194 0.97365,-0.147988 0.0602,-0.03479 0.0787,-0.416211 0.0408,-0.847567 -0.0378,-0.431361 -0.0891,-2.943284 -0.11389,-5.58208 -0.0431,-4.562426 -0.1807,-7.67611 -0.36081,-8.160744 -0.13527,-0.363963 -0.329,-0.508487 -0.69885,-0.499504 z m -16.64098,-0.09572 c -0.45167,0.0087 -0.90339,0.06568 -0.96426,0.163038 -0.11133,0.178001 -0.12142,4.379768 -0.0152,6.304174 0.20262,3.671281 0.28815,5.621583 0.27601,6.287957 -0.007,0.396479 0.0251,1.214146 0.0716,1.817254 l 0.0846,1.096703 0.72437,0.04239 c 0.39842,0.02337 0.79416,0.02332 0.87931,-1.44e-4 0.11402,-0.03144 0.14272,-0.452253 0.10889,-1.598517 -0.13031,-4.422697 -0.15957,-6.62653 -0.13381,-10.06417 0.0151,-2.075641 -0.0148,-3.841028 -0.0672,-3.923147 -0.0609,-0.09499 -0.51259,-0.134313 -0.96425,-0.125566 z m -18.36142,-0.04344 c -0.71459,-0.01095 -1.21825,-0.0062 -1.29498,0.02183 -0.21297,0.07792 -0.2293,0.288892 -0.21655,2.813236 0.0122,2.405287 0.135,12.307944 0.16319,13.156497 0.009,0.261686 0.0922,0.334895 0.45808,0.401836 0.62595,0.114525 4.04257,0.153792 5.65573,0.06495 l 1.34677,-0.07425 0.0987,-1.995875 c 0.14223,-2.874203 0.20242,-13.967959 0.0764,-14.087059 -0.10202,-0.09645 -4.14347,-0.268546 -6.28723,-0.30118 z m 48.10349,0.55053 c 1.24264,0.0097 2.83722,0.033 4.77116,0.0703 1.48491,0.02863 9.74314,0.08546 12.49788,0.08597 l 1.62418,10e-5 0.0752,0.654874 c 0.0413,0.36011 0.066,1.028776 0.0549,1.486071 -0.0112,0.4573 -0.009,2.846483 0.004,5.309305 0.0136,2.462818 -0.003,5.016954 -0.037,5.67586 l -0.0615,1.198011 -3.54018,-0.08629 c -1.94712,-0.04752 -6.76433,-0.05598 -10.70495,-0.01877 -3.94063,0.03721 -7.34356,0.09739 -7.56197,0.133822 l -0.39721,0.06629 -0.054,-5.855576 c -0.0636,-6.888705 -0.0439,-8.502357 0.105,-8.65367 0.0596,-0.06049 1.15321,-0.0825 3.22426,-0.0663 z M 248.3649,57.187167 c 0.42312,0.0026 0.43125,0.01325 0.50663,0.674744 0.0421,0.369665 0.0748,1.132672 0.0724,1.695571 -0.002,0.562893 0.0492,1.513122 0.11457,2.111615 0.0653,0.598492 0.16802,2.498943 0.22788,4.223223 0.0599,1.724279 0.14123,3.754134 0.18091,4.51079 l 0.0723,1.375734 -0.45275,-0.0028 -0.45276,-0.0028 -0.0648,-0.799886 c -0.0666,-0.820447 -0.26791,-6.049224 -0.35594,-9.245428 -0.0272,-0.98526 -0.10213,-2.137128 -0.16657,-2.559702 -0.0645,-0.422578 -0.1161,-1.04177 -0.11456,-1.375993 0.003,-0.60477 0.005,-0.607658 0.43274,-0.605051 z m -10.48189,-0.04963 c 0.17929,-0.0067 0.20456,0.08824 0.21596,0.522051 0.0469,1.787201 0.0736,3.45036 0.11784,7.397674 0.0272,2.427719 0.0991,5.01798 0.15982,5.756021 0.0825,1.003163 0.0718,1.365872 -0.0414,1.43701 -0.52409,0.328831 -0.56542,-0.06083 -0.62735,-5.916789 -0.0241,-2.286972 -0.076,-5.050671 -0.11524,-6.141553 -0.11407,-3.17288 -0.12566,-3.001195 0.20371,-3.045945 0.0324,-0.0043 0.0611,-0.0076 0.0868,-0.0083 z m 6.84296,0.0537 c 0.0461,-10e-4 0.0921,7.44e-4 0.13564,0.0056 0.44427,0.04919 0.46565,0.279908 0.53387,5.757801 0.0568,4.558506 0.0767,5.23467 0.22767,7.744916 l 0.0713,1.183827 -0.52371,-0.0032 -0.52372,-0.0032 0.004,-0.735611 c 0.0128,-2.487223 -0.10326,-6.236861 -0.26925,-8.669194 -0.22885,-3.35351 -0.2282,-5.05794 0.002,-5.206567 0.0665,-0.04289 0.20414,-0.0711 0.34228,-0.07436 z m -3.28629,0.07489 c 0.0798,-0.0026 0.15048,0.01786 0.19949,0.06769 0.0492,0.05002 0.0903,1.827598 0.0911,3.95003 9.1e-4,2.122432 0.032,5.398972 0.0688,7.281434 l 0.0668,3.422652 -0.3253,-0.002 c -0.31614,-0.0019 -0.32744,-0.03215 -0.39562,-1.057869 -0.0386,-0.580739 -0.0866,-1.804404 -0.10661,-2.719256 -0.0199,-0.914853 -0.099,-3.565782 -0.17549,-5.891048 -0.0765,-2.325265 -0.0991,-4.382622 -0.0504,-4.571962 0.0657,-0.255519 0.38758,-0.471703 0.62713,-0.47968 z m 9.78938,0.06646 0.57844,0.0035 0.57843,0.0035 0.008,1.736157 c 0.008,1.809025 0.30555,10.530897 0.40634,11.923363 l 0.0579,0.799941 -0.37379,-0.0023 c -0.51174,-0.0031 -0.5522,-0.0752 -0.46301,-0.8224 0.0439,-0.367499 -0.0404,-1.710332 -0.19335,-3.083522 -0.149,-1.337821 -0.3097,-3.727975 -0.35719,-5.311452 -0.0475,-1.583473 -0.12119,-3.411789 -0.16388,-4.062916 z m 5.8803,0.03584 0.45376,0.0028 c 0.44506,0.0027 0.45525,0.01447 0.5347,0.619442 0.17441,1.328033 0.24778,3.876829 0.24876,8.628591 10e-4,4.864936 -0.004,4.957467 -0.25209,4.955953 -0.13922,-8.39e-4 -0.28928,-0.06069 -0.33351,-0.133215 -0.19269,-0.316068 -0.4002,-5.291102 -0.31483,-7.546799 0.0821,-2.168685 0.0536,-2.802324 -0.25956,-5.790611 z m -2.24933,-0.0048 c 0.0238,0.0022 0.0408,0.0071 0.0481,0.01454 0.0294,0.02977 0.10405,1.663377 0.16602,3.630401 0.062,1.967014 0.1375,3.893141 0.16807,4.280329 0.0306,0.38719 0.13393,1.683149 0.22982,2.879923 0.0959,1.196768 0.18971,2.492679 0.20834,2.879794 0.0328,0.683873 0.0239,0.705104 -0.31887,0.742423 -0.20962,0.02285 -0.37394,-0.03006 -0.40475,-0.13037 -0.0972,-0.316344 -0.30536,-2.980646 -0.36833,-4.712579 -0.0599,-1.646321 -0.18544,-4.495372 -0.34768,-7.895071 l -0.0745,-1.560652 0.34409,-0.08411 c 0.14194,-0.0347 0.278,-0.05119 0.34959,-0.04459 z m -32.73892,-0.119314 2.44739,0.100368 c 1.34611,0.05523 2.80149,0.137706 3.234,0.183376 0.72209,0.07621 0.79097,0.110579 0.84502,0.418937 0.0766,0.43726 -0.0914,14.609127 -0.17425,14.690901 -0.082,0.08095 -2.91825,0.155525 -3.08568,0.08116 -0.0702,-0.03118 -0.85793,-0.0774 -1.75073,-0.102621 l -1.6234,-0.04588 -0.0416,-6.998912 c -0.0229,-3.849443 0.001,-7.297949 0.0539,-7.663242 z m 5.52809,1.287797 -1.15144,0.0044 c -0.6333,0.0024 -1.65324,0.04431 -2.26642,0.09313 -0.97958,0.078 -1.1255,0.121662 -1.20258,0.359481 -0.10177,0.313943 -0.19392,4.217241 -0.1132,4.791853 0.0323,0.229826 0.16609,0.444798 0.32887,0.527736 0.15098,0.07679 0.44763,0.112042 0.65893,0.07823 0.21131,-0.03381 1.07067,-0.113417 1.90986,-0.177013 0.83919,-0.0636 1.54785,-0.137542 1.57496,-0.164314 0.0271,-0.02675 0.0857,-1.076845 0.1302,-2.333508 0.0444,-1.256661 0.0921,-2.486263 0.10589,-2.732452 z m 44.33425,0.290422 c -0.53589,0.0033 -1.14862,0.03169 -1.76989,0.08692 l -1.18778,0.1057 0.005,1.931539 c 0.004,1.474763 0.0499,2.003543 0.19502,2.235792 0.17,0.272085 0.25279,0.29593 0.78522,0.226172 0.32739,-0.04289 1.22653,-0.110453 1.99815,-0.150245 1.853,-0.09556 1.81055,-0.04223 1.85605,-2.335483 0.0286,-1.438778 0,-1.782029 -0.15998,-1.916492 -0.14878,-0.125018 -0.82835,-0.189302 -1.72151,-0.183904 z m 14.66693,0.143367 c -0.24478,-0.0021 -0.50937,-9.99e-4 -0.78312,0.0037 -2.22103,0.03818 -2.46805,0.13326 -2.33605,0.899043 0.039,0.226556 0.0748,1.073805 0.0795,1.883021 0.006,1.04472 0.0591,1.529451 0.18297,1.671507 0.14679,0.168323 0.49442,0.195988 2.19232,0.174279 1.1098,-0.01423 2.07545,-0.02609 2.14582,-0.02615 0.081,-7.3e-5 0.12621,-0.80535 0.12332,-2.194122 -0.004,-1.924359 -0.0313,-2.208996 -0.22225,-2.317417 -0.0918,-0.05211 -0.64812,-0.08748 -1.38248,-0.09388 z m -7.09327,0.101941 c -0.26984,0.001 -0.57449,0.0043 -0.91759,0.0087 -1.41676,0.01833 -2.60023,0.05754 -2.6302,0.08716 -0.03,0.02959 0.004,0.311472 0.0751,0.626638 0.0776,0.342491 0.0929,1.15736 0.0384,2.025193 -0.0768,1.222146 -0.0584,1.502413 0.11539,1.771296 0.1883,0.291203 0.26497,0.313319 0.86804,0.250664 0.36382,-0.0378 1.47253,-0.100683 2.46385,-0.139906 2.19713,-0.08691 2.13035,-0.02877 1.98026,-1.72529 -0.15696,-1.774285 -0.16505,-2.061347 -0.0658,-2.358192 0.15244,-0.455952 -0.0385,-0.552938 -1.92744,-0.546222 z m -52.48939,-0.121493 -0.0829,2.029455 c -0.0456,1.116259 -0.10724,2.148487 -0.13691,2.293738 -0.0478,0.234352 -0.20628,0.280658 -1.40605,0.412714 -0.74362,0.08185 -1.42224,0.174141 -1.50799,0.204949 -0.41482,0.148964 -0.48133,-0.14927 -0.54725,-2.456327 l -0.0657,-2.301967 0.69102,-0.01852 c 0.38009,-0.01028 1.22309,-0.05154 1.87336,-0.09152 z m 44.89071,0.455739 c 0.14812,-9e-5 0.28419,0.0025 0.3985,0.0079 l 0.83134,0.0393 -0.006,1.279307 c -0.009,1.911572 0.0433,1.807499 -0.95255,1.889973 -0.46884,0.03882 -1.20752,0.107336 -1.64135,0.152414 l -0.78884,0.08215 -0.0748,-0.689351 c -0.0413,-0.379036 -0.0851,-1.120365 -0.0974,-1.647499 l -0.0221,-0.958395 0.96008,-0.09385 c 0.39603,-0.03867 0.94855,-0.06184 1.39291,-0.06197 z m 14.17888,0.110142 c 0.48872,4.78e-4 0.93973,0.01623 1.15536,0.05102 0.40755,0.0658 0.4153,0.07966 0.41129,0.737129 -0.002,0.368545 -0.0438,1.106577 -0.0922,1.640095 l -0.0879,0.969968 -0.84599,0.0693 c -0.46525,0.03807 -1.11781,0.09241 -1.45025,0.120849 -0.33245,0.02843 -0.63083,0.0082 -0.66314,-0.04477 -0.0883,-0.144792 -0.30041,-1.640332 -0.36128,-2.547644 -0.0344,-0.512419 -0.002,-0.83155 0.0901,-0.887746 0.10984,-0.06697 1.02944,-0.10889 1.84397,-0.108197 z m -6.43279,0.05026 c 1.23835,5.51e-4 1.10087,0.207916 1.19119,2.042714 l 0.0745,1.509429 -1.59958,0.06521 c -0.87978,0.03575 -1.80962,0.09954 -2.06632,0.141827 l -0.46673,0.07686 -0.0563,-1.580033 c -0.0309,-0.868978 -0.0932,-1.724185 -0.13834,-1.900369 l -0.082,-0.320336 2.04683,-0.02002 c 0.452,-0.0045 0.81101,-0.01545 1.09679,-0.0153 z m -69.95579,0.78229 c -0.28488,-0.0038 -0.61291,0.0047 -0.98117,0.02576 -1.38281,0.07943 -1.47441,0.101511 -1.51344,0.364335 -0.0281,0.189309 0.12537,0.448704 0.47487,0.802483 0.28403,0.287517 0.51622,0.576113 0.51582,0.641317 -4.3e-4,0.0652 0.0999,0.148491 0.22276,0.185263 0.21321,0.06378 1.45237,0.0094 1.49364,-0.06561 0.0109,-0.01971 0.26426,-0.356251 0.56303,-0.747933 0.29874,-0.391677 0.54369,-0.774252 0.54415,-0.850246 0.001,-0.221494 -0.46499,-0.3438 -1.31966,-0.355365 z m -0.24267,0.581471 c 0.3899,0.0082 0.66519,0.03632 0.66497,0.07301 -3.5e-4,0.04892 -0.1488,0.280504 -0.32973,0.514726 -0.43704,0.565809 -0.9102,0.569349 -1.44958,0.0109 -0.21807,-0.225779 -0.39605,-0.449644 -0.39576,-0.497657 2.7e-4,-0.04801 0.48993,-0.0939 1.08807,-0.102058 0.14953,-0.0021 0.29205,-0.0017 0.42203,9.74e-4 z m 4.40037,0.146756 c -0.55983,-0.0011 -0.64084,0.0465 -1.07555,0.631119 -0.32356,0.435126 -0.34303,0.733946 -0.0602,0.925407 0.0771,0.05217 0.6009,0.09775 1.16379,0.101294 1.67997,0.01059 1.85312,-0.113553 1.31709,-0.943485 -0.33675,-0.521375 -0.69782,-0.713292 -1.34521,-0.714336 z m -0.0921,0.509177 c 0.35371,0.0022 0.82925,0.260519 0.8281,0.449818 -9.4e-4,0.151157 -0.15958,0.19393 -0.70481,0.190607 -0.38699,-0.0024 -0.70329,-0.05765 -0.70289,-0.122977 10e-4,-0.179055 0.38141,-0.518657 0.5796,-0.51745 z m 0.63185,1.366403 c -0.47863,0.0074 -1.03398,0.07775 -1.16299,0.178566 -0.16809,0.131346 -0.0966,2.280671 0.0834,2.507972 0.0673,0.08488 0.41959,0.177077 0.7831,0.20492 0.36352,0.02787 -0.2025,0.05884 -1.25802,0.06878 -1.05554,0.0099 -2.20712,0.0379 -2.55909,0.06209 -0.35197,0.02422 -1.47493,0.07828 -2.49548,0.119967 -1.02053,0.04171 -1.88455,0.12163 -1.92009,0.177702 -0.0954,0.150503 0.16364,6.265573 0.29446,6.95073 l 0.069,0.361485 1.04356,-0.05611 c 0.57397,-0.03087 3.03009,-0.1086 5.45803,-0.172632 2.42796,-0.06403 5.16191,-0.15291 6.07538,-0.197603 l 1.6609,-0.08132 -0.0153,-2.622748 c -0.0217,-3.715139 -0.0873,-4.4129 -0.43099,-4.599519 -0.20306,-0.11029 -0.91436,-0.123155 -2.70458,-0.04847 -1.336,0.05574 -2.44273,0.09062 -2.45947,0.07746 -0.0167,-0.01319 0.0759,-0.13683 0.20607,-0.274853 0.34533,-0.366166 0.38455,-0.573194 0.19571,-1.035025 -0.19869,-0.485961 -0.21861,-1.061038 -0.0367,-1.059929 0.24913,0.0015 0.12607,-0.390852 -0.15687,-0.500202 -0.12327,-0.04764 -0.38286,-0.06581 -0.67004,-0.0613 z m -4.34315,0.01826 -0.70763,-0.0023 c -1.03577,-0.0034 -1.07267,0.04223 -1.01011,1.250451 0.0294,0.566755 0.12721,1.120437 0.21738,1.230444 0.1954,0.238377 0.19722,0.238388 1.03509,0.06403 0.63183,-0.131479 0.65516,-0.151249 0.56336,-0.47632 -0.0527,-0.186534 -0.0964,-0.727763 -0.0968,-1.202723 z m 3.94997,0.535809 c 0.37999,0.0023 0.57844,0.331878 0.57465,0.954762 -0.003,0.478811 -0.0992,0.529209 -0.60964,0.320371 -0.23857,-0.09759 -0.28656,-0.215408 -0.28362,-0.697123 0.003,-0.530965 0.0299,-0.579769 0.31861,-0.57801 z m -4.857,0.03436 c 0.22705,0.0014 0.25536,0.08701 0.25126,0.758642 -0.003,0.491645 -0.0608,0.775091 -0.16486,0.809079 -0.20332,0.0664 -0.26895,-0.130707 -0.30967,-0.92941 -0.0289,-0.566731 -0.003,-0.639692 0.22327,-0.638311 z m 10.7471,2.53373 -0.0282,3.243413 -0.0282,3.243416 -1.7916,0.08378 c -0.98538,0.04605 -3.46126,0.101378 -5.50195,0.122889 -2.0407,0.02152 -4.17958,0.06533 -4.75294,0.09747 l -1.04232,0.05862 -0.0773,-1.181116 c -0.0425,-0.64963 -0.1339,-1.777415 -0.20286,-2.505951 -0.11916,-1.258532 -0.0525,-2.439083 0.13867,-2.459143 0.0485,-0.0051 0.17471,-0.02494 0.28038,-0.04402 0.50059,-0.09045 2.32862,-0.189126 4.47919,-0.241814 3.13444,-0.07681 7.21361,-0.253749 7.94208,-0.344646 z m 71.90666,6.704515 -0.54415,0.06939 c -0.29928,0.03817 -4.97715,0.07786 -10.39526,0.08807 -9.16252,0.01727 -14.71704,0.123949 -14.88095,0.285863 -0.10491,0.103664 -0.20298,1.438984 -0.12153,1.65516 v 2.5e-4 c 0.0613,0.16266 0.47763,0.184784 2.86112,0.152116 1.53415,-0.02104 3.30791,-0.07091 3.94143,-0.110664 0.63352,-0.03976 4.34683,-0.03953 8.25181,5.59e-4 3.90497,0.04005 7.24387,0.07416 7.41977,0.0757 2.08033,0.01868 3.08796,-0.05061 3.26371,-0.224236 0.13483,-0.133198 0.19472,-0.461417 0.19856,-1.091228 z m -38.73498,0.14327 c -1.96668,-0.0085 -3.7972,0.0024 -4.63639,0.04146 -0.8798,0.04093 -2.6073,0.100622 -3.83887,0.132528 -1.23157,0.03193 -3.24719,0.136683 -4.47915,0.233071 -1.23197,0.09638 -2.83659,0.221192 -3.56588,0.277364 -0.88934,0.06849 -1.36317,0.160238 -1.43897,0.278333 -0.12943,0.201656 -0.16193,1.270262 -0.0478,1.57315 0.0657,0.174627 0.3988,0.204828 2.39496,0.216994 2.31525,0.01411 6.82939,-0.208826 9.49106,-0.468888 0.77445,-0.07568 4.11398,-0.142679 7.42114,-0.148923 l 6.01301,-0.01134 -0.0389,-0.287341 c -0.0213,-0.158078 -0.0672,-0.575623 -0.10208,-0.927653 -0.0349,-0.352036 -0.10797,-0.687555 -0.16263,-0.745859 -0.0754,-0.08043 -3.73163,-0.148653 -7.00946,-0.162907 z m 38.09122,0.527741 -0.002,0.3658 c -0.002,0.262199 -0.0839,0.395744 -0.29073,0.471485 -0.15867,0.05812 -4.14568,0.09537 -8.86001,0.08268 -4.71433,-0.01266 -10.14621,0.01316 -12.07073,0.05762 -1.92452,0.04445 -3.51416,0.05203 -3.53256,0.0167 -0.0184,-0.03529 -0.0686,-0.214635 -0.11127,-0.398724 -0.0745,-0.321099 -0.0504,-0.338191 0.5925,-0.418673 0.75821,-0.09491 6.67132,-0.152403 17.14257,-0.166888 z m -36.94875,0.03868 c 0.63981,0.0021 1.23474,0.008 1.76625,0.01776 l 3.51783,0.06442 0.0366,0.479225 0.0368,0.479478 -4.90109,-0.02757 c -2.69558,-0.01503 -5.62081,0.02515 -6.50076,0.08932 -0.87994,0.06416 -2.52135,0.169125 -3.64757,0.233138 -1.12621,0.06402 -2.82518,0.166047 -3.77547,0.226863 v 2.52e-4 c -0.95028,0.06089 -2.51938,0.108495 -3.48688,0.105504 l -1.75906,-0.0052 0.003,-0.511731 c 0.003,-0.505304 0.009,-0.51181 0.48287,-0.512791 0.60345,-0.0013 1.69158,-0.07152 4.44749,-0.286735 2.61769,-0.204422 9.30132,-0.366651 13.77992,-0.351795 z m -28.91798,0.311766 c -4.43798,-0.02652 -10.46376,-0.03156 -11.1524,0.009 -0.59832,0.03523 -3.01127,0.104977 -5.36198,0.154979 -2.44855,0.05208 -4.32789,0.144001 -4.40007,0.21531 -0.1299,0.128304 -0.15448,1.615083 -0.0301,1.819132 l 2.5e-4,2.51e-4 c 0.0835,0.137011 0.23452,0.148809 0.3569,0.02792 0.049,-0.04832 0.99425,-0.09803 2.10085,-0.110389 1.1066,-0.01236 2.9621,-0.03268 4.12318,-0.04508 1.1611,-0.01246 3.43506,9.36e-4 5.05325,0.0298 1.61821,0.02886 3.54708,-0.009 4.28635,-0.08408 0.73928,-0.07507 3.27292,-0.16199 5.63032,-0.193316 l 4.28618,-0.05709 -0.0406,-0.83182 c -0.0223,-0.457498 -0.0559,-0.848644 -0.0746,-0.86926 -0.0235,-0.0259 -2.11464,-0.04945 -4.77742,-0.06536 z m 1.92397,0.540955 c 2.29491,0.01331 2.55828,0.06563 2.606,0.19229 0.17341,0.460238 -0.11901,0.499035 -3.88517,0.516795 -2.09914,0.0099 -4.06626,0.08149 -4.57745,0.166503 -0.58997,0.09812 -2.66781,0.142904 -6.07771,0.130871 -2.84969,-0.01006 -6.40902,0.02281 -7.90944,0.07323 l -2.72792,0.09182 0.0437,-0.498228 0.044,-0.498475 3.26275,-0.06433 c 1.79449,-0.03549 7.42131,-0.08068 12.50401,-0.100205 3.23193,-0.01241 5.34021,-0.01829 6.71714,-0.01028 z m 29.38883,1.603126 c -0.10438,-0.0041 -0.22465,0.0033 -0.37841,0.01568 -1.22676,0.09862 -2.8906,1.155249 -3.37685,2.144309 -0.48222,0.980826 -0.3197,2.058357 0.47024,3.117768 0.52425,0.703112 0.91113,0.934532 1.92227,1.148631 1.67398,0.354447 2.76897,-0.228986 3.53895,-1.885704 0.29959,-0.644584 0.33937,-0.864241 0.28625,-1.580693 -0.0743,-1.001781 -0.44162,-1.603654 -1.48837,-2.439326 -0.49217,-0.392919 -0.66097,-0.508443 -0.97408,-0.52067 z m 15.89534,0.09687 c -0.10437,-0.0041 -0.22488,0.0034 -0.37865,0.01569 -1.22676,0.09862 -2.89061,1.15525 -3.37686,2.144309 -0.48222,0.980826 -0.31969,2.058357 0.47025,3.117768 0.52425,0.703112 0.91138,0.934533 1.92252,1.148633 1.67398,0.354448 2.76871,-0.228989 3.5387,-1.885705 0.29958,-0.644583 0.33936,-0.864241 0.28624,-1.580693 -0.0743,-1.001781 -0.44137,-1.603653 -1.48812,-2.439324 -0.49216,-0.392918 -0.66097,-0.508444 -0.97408,-0.520671 z m 15.63924,0.09531 c -0.10438,-0.0041 -0.22489,0.0034 -0.37866,0.01569 -1.22676,0.09862 -2.8906,1.155249 -3.37686,2.144309 -0.48221,0.980827 -0.31968,2.058357 0.47025,3.117768 0.52426,0.703111 0.91139,0.934534 1.92253,1.148632 1.67397,0.354448 2.76871,-0.228987 3.53869,-1.885705 0.29959,-0.644582 0.33936,-0.864239 0.28625,-1.580693 -0.0743,-1.001779 -0.44138,-1.603652 -1.48812,-2.439322 -0.49217,-0.392919 -0.66097,-0.508444 -0.97408,-0.520672 z m -63.83388,-0.0012 c -0.10437,-0.0041 -0.22463,0.0033 -0.3784,0.01569 -1.22675,0.09862 -2.8906,1.155001 -3.37685,2.14406 -0.48222,0.980826 -0.31969,2.058607 0.47024,3.118017 0.52426,0.703112 0.91114,0.934283 1.92228,1.148384 1.67397,0.354445 2.76896,-0.228988 3.53895,-1.885705 0.29959,-0.644583 0.33936,-0.864239 0.28624,-1.580695 -0.0743,-1.001779 -0.44161,-1.603653 -1.48837,-2.439322 -0.49217,-0.39292 -0.66098,-0.508196 -0.97409,-0.520425 z m 17.82331,0.108623 c -0.10438,-0.0041 -0.22464,0.0033 -0.3784,0.01569 -1.22677,0.09862 -2.89087,1.154999 -3.37712,2.144057 -0.48222,0.980826 -0.31943,2.05861 0.47049,3.118019 0.52426,0.703114 0.91114,0.934283 1.92228,1.148385 1.67398,0.354444 2.76897,-0.228989 3.53896,-1.885705 0.29958,-0.644584 0.33935,-0.86424 0.28623,-1.580695 -0.0743,-1.001707 -0.44161,-1.603583 -1.48836,-2.439252 -0.49216,-0.392919 -0.66097,-0.508195 -0.97408,-0.520423 z m 14.01003,0.143354 c 0.18026,-0.0026 0.34648,0.03555 0.51956,0.109116 0.25546,0.10857 0.49486,0.238927 0.53221,0.289596 0.0374,0.05067 0.27787,0.250329 0.53428,0.443782 0.62894,0.474515 0.92677,1.278523 0.82354,2.22238 -0.10614,0.970469 -0.45216,1.574707 -1.18149,2.062738 -0.51892,0.347237 -0.72906,0.41068 -1.33677,0.402142 -1.33686,-0.01855 -2.08784,-0.465697 -2.64331,-1.573585 -0.65295,-1.302245 -0.26021,-2.441939 1.13322,-3.287653 0.75721,-0.459572 1.22216,-0.662819 1.61876,-0.668536 z m 15.89534,0.09687 c 0.18027,-0.0026 0.34624,0.03556 0.51932,0.109115 0.25546,0.108568 0.49511,0.238928 0.53246,0.289597 0.0374,0.05067 0.27762,0.250326 0.53403,0.443779 0.62892,0.474516 0.92702,1.278525 0.82378,2.222384 -0.10614,0.970468 -0.4524,1.574704 -1.18173,2.062735 -0.51892,0.347238 -0.72907,0.410681 -1.33678,0.402143 -1.33686,-0.01853 -2.08783,-0.465674 -2.64331,-1.573561 -0.65294,-1.302246 -0.25996,-2.441938 1.13347,-3.287651 0.7572,-0.459573 1.22217,-0.66282 1.61876,-0.668537 z m 15.63923,0.09531 c 0.18027,-0.0026 0.34649,0.03555 0.51957,0.109116 0.25547,0.10857 0.49486,0.238926 0.53221,0.289596 0.0374,0.05067 0.27762,0.250327 0.53403,0.44378 0.62893,0.474514 0.92702,1.278524 0.82378,2.222383 -0.10614,0.970468 -0.45215,1.574705 -1.18148,2.062737 -0.51892,0.347238 -0.72931,0.410679 -1.33702,0.402141 -1.33686,-0.01853 -2.08783,-0.465674 -2.64332,-1.573562 -0.65293,-1.302245 -0.25995,-2.441938 1.13347,-3.287651 0.75721,-0.459572 1.22217,-0.662819 1.61876,-0.668536 z m -75.93589,-0.262406 c -0.10437,-0.0041 -0.22463,0.0033 -0.3784,0.01568 -1.22675,0.09862 -2.8906,1.15525 -3.37686,2.144311 -0.48221,0.980824 -0.31968,2.058356 0.47025,3.117767 0.52426,0.703112 0.91138,0.934533 1.92252,1.148632 1.67398,0.354448 2.76871,-0.228987 3.53871,-1.885705 0.29959,-0.644581 0.33935,-0.864239 0.28624,-1.580691 -0.0743,-1.001779 -0.44162,-1.603655 -1.48837,-2.439326 -0.49217,-0.392919 -0.66098,-0.508444 -0.97409,-0.520672 z m 12.10202,0.261157 c 0.18027,-0.0026 0.34649,0.03555 0.51957,0.109117 0.25547,0.108569 0.4951,0.238928 0.53246,0.289598 0.0374,0.05067 0.27763,0.250327 0.53403,0.443778 0.62892,0.474517 0.92677,1.278524 0.82354,2.222382 -0.10614,0.970468 -0.45216,1.574705 -1.18149,2.062736 -0.51892,0.34724 -0.72906,0.410434 -1.33677,0.401895 -1.33686,-0.01853 -2.08784,-0.465424 -2.64331,-1.573311 -0.65295,-1.302248 -0.26021,-2.441939 1.13322,-3.287653 0.75721,-0.459572 1.22217,-0.662819 1.61875,-0.668538 z m 17.8233,0.108623 c 0.18027,-0.0026 0.3465,0.03556 0.51958,0.109116 0.25545,0.108569 0.49485,0.238928 0.53221,0.289597 0.0374,0.05067 0.27787,0.250328 0.53428,0.44378 0.62892,0.474516 0.92676,1.278524 0.82352,2.222381 -0.10614,0.970468 -0.45215,1.574705 -1.18147,2.062737 -0.51893,0.347239 -0.72932,0.410433 -1.33703,0.401892 -1.33685,-0.01853 -2.08758,-0.465421 -2.64307,-1.573309 -0.65293,-1.302247 -0.26021,-2.441938 1.13323,-3.287653 0.7572,-0.459571 1.22216,-0.662818 1.61875,-0.668537 z m -30.39128,0.07322 c 0.18027,-0.0026 0.3465,0.03555 0.51957,0.109117 0.25547,0.108569 0.49512,0.238928 0.53247,0.289598 0.0374,0.05067 0.27763,0.250326 0.53402,0.443779 0.62893,0.474515 0.92677,1.278523 0.82354,2.22238 -0.10614,0.970469 -0.45216,1.574706 -1.18149,2.062739 -0.51892,0.347238 -0.72906,0.410682 -1.33677,0.402142 -1.33686,-0.01853 -2.08782,-0.465673 -2.64331,-1.573561 -0.65293,-1.302247 -0.26021,-2.441937 1.13322,-3.287652 0.7572,-0.45957 1.22217,-0.662819 1.61875,-0.668538 z"
       id="train"
       inkscape:connector-curvature="0"
       inkscape:label="#path20" />
    <path
       style="fill:#000000;stroke-width:1.07688999"
       d="m -493.94531,-106.75977 c -18.92421,-0.0227 -34.63342,0.12396 -43.2168,0.49024 -23.55923,1.00547 -33.55435,-2.99698 -34.19336,6.701171 l -0.41797,6.378906 42.47071,-0.466797 c 80.21559,-1.152643 1215.1387,0.414636 1218.01953,2.917969 1.46298,1.271282 6.51748,0.866412 12.12109,-0.970703 2.5094,-0.82269 3.70782,-1.208615 3.08817,-3.880023 -0.39579,-1.707099 -0.71875,-1.887398 -0.71875,-3.979631 0,-3.788222 -0.91846,-2.915982 -6.98075,-3.968472 -9.15008,-1.58838 -1133.39932,-3.15659 -1190.17187,-3.22266 z m 9.15611,2.40575 c 74.15603,0.0469 1179.44762,1.7263 1182.37528,4.25083 0.28017,0.241572 0.46034,-0.0196 0.54101,-0.20312 -0.0386,0.11971 -0.0937,0.312173 -0.18945,0.751951 -0.82596,3.796082 2.90025,7.845375 -4.67188,6.196429 -3.08534,-2.660485 -1150.63139,-4.414793 -1218.97935,-2.765067 l -42.89843,0.569476 c -0.38812,-2.479684 0.69517,-8.694559 0.69517,-8.694559 0,0 48.64964,0.47986 83.12765,-0.10594 z m -60.02135,19.47902 v 0.002 c -1.26145,0.0378 -2.6224,0.24257 -3.40234,0.539063 l -1.89063,0.71875 0.44922,6.169922 c 0.24756,3.393222 0.58,12.189064 0.73828,19.546874 0.79151,36.820619 1.05967,46.605514 1.41211,51.710938 -0.2279,7.14153071 2.2491,6.66192005 8.52149,4.1269531 0.31672,-0.2932913 0.27513,-4.6615664 -0.0937,-9.7890621 -0.36624,-5.093141 -0.73824,-18.74162 -0.82422,-30.330079 -0.0862,-11.588519 -0.34393,-25.887216 -0.57422,-31.773437 l -0.41797,-10.701172 -2.71484,-0.199219 c -0.37304,-0.03024 -0.78262,-0.03282 -1.20313,-0.02148 z m 147.48633,0 v 0.002 c -1.26145,0.0378 -2.6224,0.24257 -3.40234,0.539063 l -1.89063,0.71875 0.45117,6.169922 c 0.24756,3.393184 0.58,12.189064 0.73829,19.546874 0.79154,36.820619 1.05767,46.605514 1.41015,51.710938 -0.2279,7.14153071 2.2491,6.66192005 8.52149,4.1269531 0.31672,-0.2932913 0.27513,-4.6615664 -0.0937,-9.7890621 -0.36624,-5.093141 -0.73629,-18.74162 -0.82227,-30.330079 -0.0858,-11.588519 -0.34581,-25.887216 -0.57617,-31.773437 l -0.41797,-10.701172 -2.71484,-0.199219 c -0.37304,-0.03024 -0.78262,-0.03282 -1.20313,-0.02148 z m 147.48633,0 v 0.002 c -1.26146,0.0378 -2.62045,0.24257 -3.40039,0.539063 l -1.89258,0.71875 0.45117,6.169922 c 0.24756,3.393184 0.58,12.189064 0.73828,19.546874 0.79155,36.820619 1.05768,46.605514 1.41016,51.710938 -0.22791,7.14153071 2.24913,6.66192005 8.52148,4.1269531 0.31673,-0.2932913 0.27514,-4.6615664 -0.0937,-9.7890621 -0.36623,-5.093141 -0.73631,-18.74162 -0.82226,-30.330079 -0.0862,-11.588519 -0.34585,-25.887216 -0.57617,-31.773437 l -0.41797,-10.701172 -2.71485,-0.199219 c -0.37303,-0.03024 -0.78261,-0.03282 -1.20312,-0.02148 z m 161.207031,0 v 0.002 c -1.261418,0.0378 -2.622363,0.24257 -3.402344,0.539063 l -1.890625,0.71875 0.451172,6.169922 c 0.247559,3.393184 0.578041,12.189064 0.736328,19.546874 0.791546,36.820619 1.059668,46.605514 1.412109,51.710938 -0.227905,7.14153071 2.249056,6.66192005 8.521485,4.1269531 0.316724,-0.2932913 0.275132,-4.6615664 -0.09375,-9.7890621 -0.366237,-5.093141 -0.738273,-18.74162 -0.824219,-30.330079 -0.08617,-11.588519 -0.343932,-25.887216 -0.574219,-31.773437 l -0.417969,-10.701172 -2.714843,-0.199219 c -0.373418,-0.03024 -0.782615,-0.03282 -1.203125,-0.02148 z m 156.0625,0 v 0.002 c -1.261418,0.0378 -2.622363,0.24257 -3.402344,0.539063 l -1.892578,0.71875 0.451172,6.169922 c 0.247559,3.393184 0.580032,12.189098 0.738281,19.546874 0.791546,36.820619 1.057715,46.605552 1.410156,51.710938 -0.227905,7.14153071 2.251009,6.66195785 8.523438,4.1269531 0.316724,-0.2932913 0.275132,-4.6616042 -0.09375,-9.7890621 -0.366237,-5.093178 -0.73632,-18.74162 -0.822266,-30.330079 -0.08617,-11.588485 -0.343932,-25.887208 -0.574219,-31.773437 l -0.417969,-10.701172 -2.714843,-0.199219 c -0.373418,-0.03024 -0.782615,-0.03282 -1.203125,-0.02148 z m 159.490239,0 v 0.002 c -1.26144,0.0378 -2.62238,0.24257 -3.40235,0.539063 l -1.89062,0.71875 0.45117,6.169922 c 0.24767,3.393184 0.58002,12.189098 0.73828,19.546874 0.79155,36.820619 1.05768,46.605552 1.41016,51.710938 -0.2278,7.14153071 2.24906,6.66195785 8.52148,4.1269531 0.31665,-0.2932913 0.27487,-4.6616042 -0.0937,-9.7890621 -0.36635,-5.093141 -0.73632,-18.74162 -0.82227,-30.330079 -0.086,-11.588485 -0.34589,-25.887208 -0.57617,-31.773437 l -0.41797,-10.701172 -2.71484,-0.199219 c -0.37327,-0.03024 -0.78261,-0.03282 -1.20312,-0.02148 z m 159.71679,0 v 0.002 c -1.26141,0.0378 -2.62236,0.24257 -3.40234,0.539063 l -1.89063,0.71875 0.45118,6.169922 c 0.24755,3.393184 0.58003,12.18906 0.73828,19.546874 0.79154,36.820619 1.05771,46.605552 1.41015,51.710938 -0.2279,7.14153071 2.24906,6.66195785 8.52149,4.1269531 0.31672,-0.2932913 0.27509,-4.6616042 -0.0937,-9.7890621 -0.36624,-5.093178 -0.73632,-18.74162 -0.82227,-30.330079 -0.0862,-11.588485 -0.34602,-25.887205 -0.57617,-31.773437 l -0.41797,-10.701172 -2.71484,-0.199219 c -0.37342,-0.03024 -0.78262,-0.03282 -1.20313,-0.02148 z m 159.49219,0 v 0.002 c -1.26144,0.0378 -2.62237,0.24257 -3.40234,0.539063 l -1.89063,0.71875 0.44922,6.169922 c 0.24767,3.393184 0.58002,12.18906 0.73828,19.546874 0.79156,36.820619 1.05965,46.605552 1.41211,51.710938 -0.22779,7.14153071 2.24905,6.66195785 8.52148,4.1269531 0.31665,-0.2932913 0.27487,-4.6616042 -0.0937,-9.7890621 -0.36634,-5.093141 -0.73826,-18.74162 -0.82421,-30.330079 -0.086,-11.588485 -0.34393,-25.887205 -0.57422,-31.773437 l -0.41797,-10.701172 -2.71485,-0.199219 c -0.37327,-0.03024 -0.78261,-0.03282 -1.20312,-0.02148 z m -1030.83594,1.294922 -4.68359,0.232422 c -2.57522,0.127748 -4.82416,0.370319 -4.9961,0.537109 -0.37152,0.360567 -0.32809,2.141084 0.57813,24.314453 0.38347,9.381166 1.02974,25.596454 1.43555,36.033203 0.49107,12.6292539 1.0009,19.2753528 1.52539,19.8730472 0.51885,0.5914205 2.44535,0.90614 5.63867,0.9238282 4.30159,0.022677 4.84961,-0.1160239 4.84961,-1.2265625 0,-5.3358614 -2.18594,-45.6280319 -2.99805,-55.2695309 -0.55778,-6.621982 -1.09107,-15.049637 -1.18359,-18.728516 z m 147.48633,0 -4.68359,0.232422 c -2.57522,0.127748 -4.82225,0.370319 -4.99414,0.537109 -0.37153,0.360567 -0.32994,2.141084 0.57617,24.314453 0.38347,9.381166 1.02977,25.596454 1.43554,36.033203 0.49112,12.6292539 1.00091,19.2752772 1.52539,19.8730472 0.51886,0.5913827 2.44535,0.90614 5.63868,0.9238282 4.30163,0.022677 4.84961,-0.1160239 4.84961,-1.2265625 0,-5.3358236 -2.18594,-45.6280699 -2.99805,-55.2695309 -0.55778,-6.621982 -1.09107,-15.049637 -1.18359,-18.728516 z m 147.48633,0 -4.68164,0.232422 c -2.57526,0.127748 -4.8242,0.370319 -4.9961,0.537109 -0.37152,0.360567 -0.32997,2.141084 0.57618,24.314453 0.38347,9.381166 1.02977,25.596454 1.43554,36.033203 0.49111,12.6292539 1.00091,19.2752772 1.52539,19.8730472 0.51886,0.5913827 2.44535,0.90614 5.63867,0.9238282 4.30164,0.022677 4.84961,-0.1160239 4.84961,-1.2265625 0,-5.3358236 -2.18398,-45.6280699 -2.99609,-55.2695309 -0.55778,-6.621982 -1.09107,-15.049637 -1.18359,-18.728516 z m 161.207029,0 -4.683593,0.232422 c -2.575257,0.127748 -4.822248,0.370319 -4.994141,0.537109 -0.371528,0.360567 -0.32997,2.141084 0.576172,24.314453 0.383433,9.381166 1.029777,25.596454 1.435547,36.033203 0.491112,12.6292539 1.000943,19.2752772 1.52539,19.8730472 0.518892,0.5913827 2.445349,0.90614 5.638672,0.9238282 4.301632,0.022677 4.84961,-0.1160239 4.84961,-1.2265625 0,-5.3358236 -2.18594,-45.6280699 -2.998047,-55.2695309 -0.557745,-6.621982 -1.091071,-15.049637 -1.183594,-18.728516 z m 156.060551,0 -4.68164,0.232422 c -2.57526,0.127748 -4.82421,0.370319 -4.9961,0.537109 -0.37153,0.360567 -0.32805,2.141054 0.57813,24.314453 0.38347,9.381166 1.02782,25.596529 1.43359,36.033203 0.49107,12.6292539 1.00094,19.2752772 1.52539,19.8730472 0.51889,0.5914205 2.44535,0.9061022 5.63867,0.9238282 4.30163,0.022677 4.84961,-0.115646 4.84961,-1.2265625 0,-5.3358236 -2.18398,-45.6280699 -2.99609,-55.2695309 -0.55775,-6.62199 -1.09107,-15.049637 -1.1836,-18.728516 z m 159.49218,0 -4.68359,0.232422 c -2.57524,0.127748 -4.82224,0.370319 -4.99414,0.537109 -0.37168,0.360945 -0.33018,2.141054 0.57617,24.314453 0.38346,9.381166 1.02976,25.596529 1.43555,36.033203 0.49109,12.6292539 1.00093,19.2753528 1.52539,19.8730472 0.51888,0.5914205 2.44535,0.9061022 5.63867,0.9238282 4.30163,0.022677 4.84961,-0.1160239 4.84961,-1.2265625 0,-5.3358614 -2.18592,-45.6280319 -2.99805,-55.2695309 -0.55776,-6.62199 -1.09106,-15.049599 -1.18359,-18.728516 z m 159.7168,0 -4.68359,0.232422 c -2.57524,0.127748 -4.82225,0.370319 -4.99414,0.537109 -0.37168,0.360567 -0.33018,2.141054 0.57617,24.314453 0.38345,9.381166 1.02976,25.596529 1.43554,36.033203 0.49109,12.6292539 1.00093,19.2752772 1.5254,19.8730472 0.51886,0.5914205 2.44535,0.9061022 5.63867,0.9238282 4.30162,0.022677 4.84961,-0.115646 4.84961,-1.2265625 0,-5.3358236 -2.18593,-45.6280699 -2.99805,-55.2695309 -0.55776,-6.62199 -1.09107,-15.049637 -1.18359,-18.728516 z m 159.49024,0 -4.68165,0.232422 c -2.57524,0.127748 -4.82418,0.370319 -4.99609,0.537109 -0.37168,0.360945 -0.32822,2.141054 0.57813,24.314453 0.38345,9.381166 1.0278,25.596529 1.43359,36.033203 0.49109,12.6292539 1.00289,19.2753528 1.52734,19.8730472 0.51888,0.5914205 2.44536,0.9061022 5.63868,0.9238282 4.30162,0.022677 4.84765,-0.1160239 4.84765,-1.2265625 0,-5.3358614 -2.18397,-45.6280319 -2.99609,-55.2695309 -0.55777,-6.62199 -1.09107,-15.049599 -1.1836,-18.728516 z m -1151.18946,0.671875 c 0.93714,-0.04044 1.07106,0.454864 1.14453,2.722656 0.30274,9.34269 0.49448,18.03723 0.85157,38.673828 0.21996,12.692179 0.6788,26.233063 1.01953,30.089844 0.46318,5.2422803 0.42082,7.1400911 -0.16993,7.515625 -2.72965,1.7359748 -2.9584,-0.3008597 -3.46874,-30.916016 -0.19919,-11.95635 -0.55891,-26.40512 -0.79883,-32.107422 -0.69748,-16.585345 -0.75196,-15.68718 0.96875,-15.93164 0.16856,-0.02268 0.31936,-0.04083 0.45312,-0.04687 z m 147.48633,0 c 0.93713,-0.04044 1.07301,0.454864 1.14648,2.722656 0.30274,9.34269 0.49448,18.03723 0.85157,38.673828 0.21997,12.692179 0.67685,26.233063 1.01758,30.089844 0.46318,5.2422803 0.42081,7.1400911 -0.16993,7.515625 -2.72965,1.7359748 -2.95832,-0.3008597 -3.46875,-30.916016 -0.19918,-11.95635 -0.5589,-26.40512 -0.79882,-32.107422 -0.69748,-16.585345 -0.75196,-15.68718 0.96874,-15.93164 0.16857,-0.02268 0.31937,-0.04083 0.45313,-0.04687 z m 147.48633,0 c 0.93713,-0.04044 1.07301,0.454864 1.14648,2.722656 0.30274,9.34269 0.49448,18.03723 0.85156,38.673828 0.2196,12.692179 0.67881,26.233063 1.01954,30.089844 0.46318,5.2422803 0.41845,7.1400911 -0.17188,7.515625 -2.72965,1.7359748 -2.95832,-0.3008597 -3.46875,-30.916016 -0.19918,-11.95635 -0.55695,-26.40512 -0.79687,-32.107422 -0.69748,-16.585345 -0.75391,-15.68718 0.96679,-15.93164 0.16857,-0.02268 0.31975,-0.04083 0.45313,-0.04687 z m 161.207029,0 c 0.937172,-0.04044 1.071058,0.454864 1.144532,2.722656 0.30274,9.34269 0.496425,18.03723 0.853515,38.673828 0.219969,12.692179 0.676854,26.233063 1.017578,30.089844 0.463181,5.2422803 0.420819,7.1400911 -0.169922,7.515625 -2.72965,1.7359748 -2.958324,-0.3008597 -3.46875,-30.916016 -0.199181,-11.95635 -0.558903,-26.40512 -0.798828,-32.107422 -0.697474,-16.585345 -0.751955,-15.68718 0.96875,-15.93164 0.168567,-0.02268 0.319368,-0.04083 0.453125,-0.04687 z m 156.060547,0 c 0.937172,-0.04044 1.073011,0.454864 1.146485,2.722656 0.30274,9.342694 0.49451,18.03723 0.851562,38.673828 0.219591,12.692179 0.678807,26.233063 1.019531,30.089844 0.463181,5.2422803 0.41845,7.1400533 -0.171875,7.515625 -2.729688,1.735937 -2.958324,-0.3008597 -3.46875,-30.916016 -0.199181,-11.95635 -0.556988,-26.405192 -0.796875,-32.107422 -0.697511,-16.58539 -0.753908,-15.68718 0.966797,-15.93164 0.168945,-0.02268 0.319746,-0.04083 0.453125,-0.04687 z m 159.492184,0 c 0.93715,-0.04044 1.07302,0.454864 1.14649,2.722656 0.30285,9.342694 0.49448,18.037268 0.85156,38.673828 0.21978,12.692179 0.67686,26.233063 1.01758,30.089844 0.46318,5.2422803 0.42045,7.1400533 -0.16992,7.515625 -2.72966,1.735937 -2.95835,-0.3008597 -3.46875,-30.916016 -0.19922,-11.95635 -0.55891,-26.405192 -0.79883,-32.107422 -0.69749,-16.58539 -0.75196,-15.68718 0.96875,-15.93164 0.16875,-0.02268 0.31937,-0.04083 0.45312,-0.04687 z m 159.7168,0 c 0.93717,-0.04044 1.07301,0.454864 1.14648,2.722656 0.30275,9.342686 0.49452,18.03723 0.85157,38.673828 0.21959,12.692179 0.67685,26.233063 1.01758,30.089844 0.46318,5.2422803 0.42029,7.1400533 -0.16993,7.515625 -2.72968,1.735937 -2.95831,-0.3008597 -3.46875,-30.916016 -0.19918,-11.95635 -0.55895,-26.405154 -0.79882,-32.107422 -0.69752,-16.585394 -0.75196,-15.68718 0.96875,-15.93164 0.16894,-0.02268 0.31956,-0.04083 0.45312,-0.04687 z m 159.49219,0 c 0.93714,-0.04044 1.07106,0.454864 1.14453,2.722656 0.30285,9.342686 0.49448,18.037268 0.85156,38.673828 0.21978,12.692179 0.67881,26.233063 1.01953,30.089844 0.46318,5.2422803 0.42046,7.1400533 -0.16992,7.515625 -2.72965,1.735937 -2.95834,-0.3008597 -3.46875,-30.916016 -0.19922,-11.95635 -0.55891,-26.405154 -0.79883,-32.107422 -0.69748,-16.585394 -0.75196,-15.68718 0.96875,-15.93164 0.16876,-0.02268 0.31939,-0.04083 0.45313,-0.04687 z m -986.35938,0.351562 c -0.27628,0.01134 -0.57128,0.03476 -0.88672,0.07422 -5.77731,0.739654 -6.14252,1.46692 -4.91992,9.783203 0.52437,3.566876 0.86654,14.917702 0.93555,31.041016 0.0971,22.731027 0.57004,35.7454136 1.39258,38.3476561 0.21732,0.6871937 1.30611,0.7830967 4.79492,0.4199219 2.4836,-0.2585197 4.77197,-0.6209269 5.08594,-0.8046875 0.31408,-0.183685 0.39892,-2.1794835 0.1875,-4.4335937 -0.21128,-2.2541098 -0.55925,-15.3858358 -0.77344,-29.1816408 -0.37039,-23.852727 -1.1894,-40.128124 -2.14648,-42.65625 -0.7188,-1.898608 -1.73647,-2.648577 -3.66993,-2.589845 z m 147.48633,0 c -0.27628,0.01134 -0.57132,0.03476 -0.88672,0.07422 -5.77731,0.739654 -6.14252,1.46692 -4.91992,9.783203 0.52437,3.566876 0.86653,14.917702 0.93555,31.041016 0.0971,22.731027 0.57004,35.7454136 1.39258,38.3476561 0.21732,0.6871937 1.30806,0.7830967 4.79687,0.4199219 2.4836,-0.2585197 4.77197,-0.6209269 5.08594,-0.8046875 0.31408,-0.183685 0.3969,-2.1794835 0.18554,-4.4335937 -0.21127,-2.2541098 -0.55925,-15.3857978 -0.77343,-29.1816408 -0.3704,-23.852727 -1.18936,-40.128124 -2.14649,-42.65625 -0.71879,-1.898608 -1.7365,-2.648577 -3.66992,-2.589845 z m 147.48828,0 c -0.27628,0.01134 -0.57327,0.03476 -0.88867,0.07422 -5.77731,0.739654 -6.14252,1.46692 -4.91992,9.783203 0.52437,3.566876 0.86653,14.917702 0.93555,31.041016 0.0971,22.731027 0.57007,35.7454136 1.39257,38.3476561 0.21733,0.6871937 1.30803,0.7830967 4.79688,0.4199219 2.48356,-0.2585197 4.77197,-0.6209269 5.08594,-0.8046875 0.31407,-0.183685 0.39693,-2.1794835 0.18554,-4.4335937 -0.21127,-2.2541098 -0.55733,-15.3857978 -0.77148,-29.1816408 -0.37039,-23.852727 -1.18936,-40.128124 -2.14649,-42.65625 -0.71879,-1.898608 -1.7365,-2.648577 -3.66992,-2.589845 z m 161.205081,0 c -0.276284,0.01134 -0.571318,0.03476 -0.886719,0.07422 -5.7773104,0.739654 -6.1425236,1.46692 -4.919922,9.783203 0.524372,3.566876 0.866533,14.917702 0.935547,31.041016 0.09713,22.731027 0.570039,35.7454136 1.392578,38.3476561 0.217323,0.6871937 1.307993,0.7830967 4.796875,0.4199219 2.483528,-0.2585197 4.771972,-0.6209269 5.085938,-0.8046875 0.314078,-0.183685 0.396898,-2.1794835 0.185546,-4.4335937 -0.211275,-2.2541098 -0.559289,-15.3857978 -0.773437,-29.1816408 -0.370394,-23.852727 -1.189357,-40.128124 -2.146485,-42.65625 -0.71879,-1.898608 -1.736504,-2.648577 -3.669921,-2.589845 z m 156.062499,0 c -0.27625,0.01134 -0.57131,0.03476 -0.88672,0.07422 -5.77732,0.739654 -6.14251,1.46692 -4.91992,9.783203 0.52437,3.566876 0.86654,14.917702 0.93555,31.041016 0.0972,22.731027 0.57003,35.7454136 1.39257,38.3476561 0.21721,0.6871937 1.30606,0.7830967 4.79493,0.4199219 2.48354,-0.2585197 4.77197,-0.6209269 5.08593,-0.8046875 0.31408,-0.183685 0.39891,-2.1794835 0.1875,-4.4335937 -0.21142,-2.2541098 -0.55929,-15.3857978 -0.77343,-29.1816408 -0.37036,-23.852727 -1.18936,-40.128124 -2.14649,-42.65625 -0.71878,-1.898608 -1.7365,-2.648577 -3.66992,-2.589845 z m 159.49024,0 c -0.27625,0.01134 -0.57131,0.03476 -0.88672,0.07422 -5.77732,0.739654 -6.14251,1.46692 -4.91993,9.783203 0.52437,3.566876 0.86654,14.917702 0.93555,31.041016 0.0972,22.731027 0.57004,35.7454136 1.39258,38.3476561 0.21721,0.6871937 1.30802,0.7830967 4.79687,0.4199219 2.48355,-0.2585197 4.77198,-0.6209269 5.08594,-0.8046875 0.31408,-0.183685 0.39697,-2.1794835 0.18555,-4.4335937 -0.21143,-2.2541098 -0.55929,-15.3857978 -0.77344,-29.1816408 -0.37035,-23.852727 -1.18935,-40.128124 -2.14648,-42.65625 -0.71879,-1.898608 -1.73652,-2.648577 -3.66992,-2.589845 z m 159.71679,0 c -0.27624,0.01134 -0.57131,0.03476 -0.88672,0.07422 -5.77731,0.739654 -6.1425,1.466931 -4.91992,9.783203 0.52437,3.566892 0.86654,14.917702 0.93555,31.041016 0.0972,22.731027 0.57003,35.7454136 1.39258,38.3476561 0.21721,0.6871937 1.308,0.7830967 4.79687,0.4199219 2.48355,-0.2585197 4.77197,-0.6209269 5.08594,-0.8046875 0.31408,-0.183685 0.39696,-2.1794835 0.18555,-4.4335937 -0.21143,-2.2541098 -0.55929,-15.3857978 -0.77344,-29.1816408 -0.37036,-23.852727 -1.18935,-40.128124 -2.14649,-42.65625 -0.71878,-1.898608 -1.7365,-2.648577 -3.66992,-2.589845 z m 159.49219,0 c -0.27625,0.01134 -0.57131,0.03476 -0.88672,0.07422 -5.77732,0.739654 -6.14251,1.466931 -4.91992,9.783203 0.52437,3.566892 0.86654,14.917702 0.93555,31.041016 0.0972,22.731027 0.57004,35.7454136 1.39257,38.3476561 0.21721,0.6871937 1.30606,0.7830967 4.79493,0.4199219 2.48353,-0.2585197 4.77197,-0.6209269 5.08593,-0.8046875 0.31408,-0.183685 0.39892,-2.1794835 0.1875,-4.4335937 -0.21142,-2.2541098 -0.55929,-15.3857978 -0.77343,-29.1816408 -0.37036,-23.852727 -1.18936,-40.128124 -2.14649,-42.65625 -0.71878,-1.898608 -1.7365,-2.648577 -3.66992,-2.589845 z m -1140.71875,1.988282 h 0.002 c 2.21013,3.7e-5 2.25297,0.05709 2.66797,3.511718 0.23206,1.931377 0.42662,5.918176 0.43164,8.861329 0.008,2.94308 0.305,7.910079 0.66602,11.037109 0.36094,3.127068 0.95823,13.060968 1.32617,22.074219 0.36813,9.013228 0.85831,19.62334 1.08984,23.578125 l 0.42188,7.1894528 h -2.36719 -2.36719 l -0.36132,-4.1796876 c -0.37418,-4.2874582 -1.59416,-31.6200092 -2.15626,-48.3281252 -0.1731,-5.150475 -0.60253,-11.169595 -0.95312,-13.376953 -0.35074,-2.207354 -0.64001,-5.443904 -0.64258,-7.191406 -0.008,-3.160986 0.008,-3.175772 2.24219,-3.175781 z m 147.48633,0 c 2.21231,0 2.25478,0.05594 2.66992,3.511718 0.23206,1.931377 0.42658,5.918214 0.43164,8.861329 0.008,2.943118 0.30691,7.910079 0.66797,11.037109 0.36094,3.127068 0.95624,13.060968 1.32422,22.074219 0.36812,9.013228 0.85827,19.62334 1.08984,23.578125 l 0.42188,7.1894528 h -2.36719 -2.36719 l -0.36328,-4.1796876 c -0.37417,-4.2874582 -1.59416,-31.6200092 -2.15625,-48.3281252 -0.1731,-5.150438 -0.60058,-11.169595 -0.95117,-13.376953 -0.35074,-2.207354 -0.642,-5.443904 -0.64453,-7.191406 -0.008,-3.162028 0.008,-3.175781 2.24414,-3.175781 z m 147.48633,0 h 0.002 c 2.21013,3.7e-5 2.25296,0.05709 2.66797,3.511718 0.23206,1.931377 0.42856,5.918214 0.43359,8.861329 0.008,2.943118 0.30503,7.910079 0.66602,11.037109 0.36094,3.127068 0.95823,13.060968 1.32617,22.074219 0.36812,9.013228 0.85827,19.62334 1.08984,23.578125 l 0.42188,7.1894528 h -2.36719 -2.36719 l -0.36328,-4.1796876 c -0.37417,-4.2874582 -1.59416,-31.6200092 -2.15625,-48.3281252 -0.1731,-5.150438 -0.60058,-11.169595 -0.95117,-13.376953 -0.35074,-2.207354 -0.64005,-5.443904 -0.64258,-7.191406 -0.008,-3.160983 0.008,-3.175772 2.24024,-3.175781 z m 161.207027,0 h 0.002 c 2.210131,3.7e-5 2.252963,0.05709 2.667969,3.511718 0.232063,1.931377 0.426614,5.918214 0.43164,8.861329 0.0076,2.943118 0.304996,7.910079 0.666016,11.037109 0.360945,3.127068 0.958235,13.060968 1.326172,22.074219 0.368126,9.013228 0.858272,19.62334 1.089844,23.578125 l 0.421875,7.1894528 h -2.367188 -2.367187 l -0.361329,-4.1796876 c -0.374173,-4.2874582 -1.594158,-31.6200092 -2.15625,-48.3281252 -0.173102,-5.150438 -0.602536,-11.169595 -0.953124,-13.376953 -0.350741,-2.207354 -0.640046,-5.443904 -0.642579,-7.191406 -0.0076,-3.160986 0.0078,-3.175772 2.242188,-3.175781 z m 156.060543,0 h 0.002 c 2.21013,3.7e-5 2.25292,0.05709 2.66797,3.511718 0.23206,1.931415 0.42852,5.918195 0.43359,8.861329 0.008,2.943118 0.30499,7.910041 0.66602,11.037109 0.36094,3.12703 0.95823,13.060968 1.32617,22.074219 0.36812,9.013266 0.85827,19.623378 1.08984,23.578125 l 0.42188,7.1894528 h -2.36719 -2.36719 l -0.36328,-4.1796876 c -0.37417,-4.2874582 -1.5942,-31.6200092 -2.15625,-48.3281252 -0.17348,-5.150438 -0.60058,-11.169595 -0.95117,-13.376953 -0.35074,-2.207335 -0.64009,-5.443942 -0.64258,-7.191406 -0.008,-3.161023 0.004,-3.175772 2.24023,-3.175781 z m 159.49219,0 c 2.21232,0 2.25477,0.05594 2.66992,3.511718 0.23195,1.931415 0.42661,5.918199 0.43164,8.861329 0.006,2.943118 0.30713,7.910079 0.66797,11.037109 0.36083,3.127068 0.95825,13.060968 1.32617,22.074219 0.36798,9.013266 0.85632,19.623378 1.08789,23.578125 l 0.42188,7.1894528 h -2.36719 -2.36719 l -0.36328,-4.1796876 c -0.37413,-4.2874582 -1.59415,-31.6200092 -2.15625,-48.3281252 -0.17325,-5.150438 -0.60252,-11.169595 -0.95312,-13.376953 -0.35059,-2.207335 -0.64005,-5.443904 -0.64258,-7.191406 -0.006,-3.162066 0.008,-3.175781 2.24414,-3.175781 z m 159.7168,0 c 2.21231,0 2.25477,0.05594 2.66992,3.511718 0.23195,1.931415 0.4266,5.91821 0.43164,8.861329 0.006,2.943118 0.30712,7.910041 0.66797,11.037109 0.36083,3.12703 0.95629,13.060968 1.32422,22.074219 0.36797,9.013266 0.85827,19.623378 1.08984,23.578125 l 0.42188,7.1894528 h -2.36719 -2.36719 l -0.36328,-4.1796876 c -0.37413,-4.2874582 -1.59415,-31.6200092 -2.15625,-48.3281252 -0.17325,-5.150438 -0.60252,-11.169595 -0.95312,-13.376953 -0.35059,-2.20732 -0.64005,-5.443942 -0.64258,-7.191406 -0.006,-3.162066 0.008,-3.175781 2.24414,-3.175781 z m 159.49023,0 c 2.21232,0 2.25672,0.05594 2.67188,3.511718 0.23195,1.931415 0.4266,5.91821 0.43164,8.861329 0.006,2.943118 0.30516,7.910079 0.66601,11.037109 0.36084,3.127068 0.95825,13.060968 1.32618,22.074219 0.36797,9.013266 0.85826,19.623378 1.08984,23.578125 l 0.42187,7.1894528 h -2.36718 -2.36719 l -0.36523,-4.1796876 c -0.37414,-4.2874582 -1.59221,-31.6200092 -2.1543,-48.3281252 -0.17326,-5.150438 -0.60252,-11.169595 -0.95313,-13.376953 -0.35059,-2.20732 -0.64005,-5.443904 -0.64257,-7.191406 -0.006,-3.162066 0.006,-3.175781 2.24218,-3.175781 z m -1045.21484,0.449218 h 2.37109 c 2.32698,0 2.38169,0.05987 2.81641,3.220703 0.95418,6.937837 1.4197,20.261546 1.57617,45.105469 0.16025,25.435427 0.13909,25.9199221 -1.16016,25.9199221 -0.72789,0 -1.51443,-0.3076697 -1.74804,-0.6855469 -1.01745,-1.6464 -2.2612,-27.6509372 -1.88672,-39.4472652 0.35981,-11.341304 0.18938,-14.65367 -1.54297,-30.267579 z m 147.48633,0 h 2.37304 c 2.32698,0 2.37974,0.05987 2.81446,3.220703 0.95418,6.937837 1.4197,20.261546 1.57617,45.105469 0.16025,25.4354648 0.13871,25.9199221 -1.16016,25.9199221 -0.72793,0 -1.51443,-0.3076697 -1.74804,-0.6855469 -1.01745,-1.6463622 -2.2612,-27.6509372 -1.88672,-39.4472652 0.35981,-11.341304 0.19125,-14.65367 -1.54102,-30.267579 z m 147.48633,0 h 2.37304 c 2.32698,0 2.37973,0.05987 2.81446,3.220703 0.95417,6.937837 1.41969,20.261546 1.57617,45.105469 0.16025,25.4354648 0.13909,25.9199221 -1.16016,25.9199221 -0.72794,0 -1.51443,-0.3076697 -1.74805,-0.6855469 -1.01745,-1.6463622 -2.26119,-27.6509372 -1.88672,-39.4472652 0.35982,-11.341304 0.19164,-14.65367 -1.54101,-30.267579 z m 161.207026,0 H 14.125 c 2.32698,0 2.381685,0.05987 2.816406,3.220703 0.95418,6.937837 1.419662,20.261546 1.576172,45.105469 0.16063,25.4354648 0.139094,25.9199221 -1.160156,25.9199221 -0.727937,0 -1.514472,-0.3076697 -1.748047,-0.6855469 -1.017487,-1.6463622 -2.261194,-27.6509372 -1.886719,-39.4472652 0.359811,-11.341304 0.191255,-14.65367 -1.541015,-30.267579 z m 156.060544,0 h 2.37305 c 2.32698,0 2.37974,0.05987 2.81445,3.220703 0.95419,6.937837 1.41971,20.261584 1.57617,45.105469 0.16041,25.4354648 0.13887,25.9199221 -1.16015,25.9199221 -0.72793,0 -1.51445,-0.3076697 -1.74805,-0.6855469 -1.01748,-1.6463622 -2.26119,-27.6509372 -1.88672,-39.4472652 0.35997,-11.341304 0.19147,-14.653711 -1.54101,-30.267579 z m 159.49219,0 h 2.37305 c 2.32698,0 2.37973,0.05987 2.81445,3.220703 0.95418,6.937837 1.4197,20.261584 1.57617,45.105469 0.16041,25.4354648 0.13885,25.9199221 -1.16015,25.9199221 -0.72794,0 -1.51446,-0.3076697 -1.74805,-0.6855469 -1.01748,-1.6463622 -2.26119,-27.6509372 -1.88672,-39.4472652 0.35996,-11.341304 0.19147,-14.653711 -1.54101,-30.267579 z m 159.7168,0 h 2.37304 c 2.32698,0 2.37973,0.05987 2.81446,3.220703 0.95418,6.937841 1.4197,20.261584 1.57617,45.105469 0.1604,25.4354648 0.13887,25.9199221 -1.16016,25.9199221 -0.72793,0 -1.51445,-0.3076697 -1.74804,-0.6855469 -1.01748,-1.6463622 -2.2612,-27.6509372 -1.88672,-39.4472652 0.35996,-11.341304 0.19148,-14.653704 -1.54102,-30.267579 z m 159.49218,0 h 2.3711 c 2.32698,0 2.38167,0.05987 2.8164,3.220703 0.95418,6.937841 1.41777,20.261584 1.57422,45.105469 0.16041,25.4354648 0.13886,25.9199221 -1.16015,25.9199221 -0.72794,0 -1.51446,-0.3076697 -1.74805,-0.6855469 -1.01748,-1.6463622 -2.25924,-27.6509372 -1.88476,-39.4472652 0.35996,-11.341304 0.1895,-14.653704 -1.54297,-30.267579 z"
       transform="matrix(0.26458333,0,0,0.26458333,-137.21253,110.66093)"
       id="path49"
       inkscape:connector-curvature="0"
       sodipodi:nodetypes="ccccccccscccccccccccccccccccccccccccccccccccccccccccccccccccccccccccccccccccccccccccccccccccccccccccccccccccccccccccccccccccccccccccccccccccccccsccsscccccccccsscccccccccsscccccccccsccccccccccsccccccscccsccccccccccsccccccccccscccccccccccccccccccccccccccccccccccccccccccccscccccccccccccccccccscccccccccccccccccccccccccccccccccccccccccccccccccccccccccccccccsccccccccccsccccccccccscccccccccccccccscccccccccccccccccccsccccccccccccsccccccccccccccccccccccccccccccccccccccccccccccccsccccccccccccssccccccccccccssccccccccccccscsscscccccsscscccccsccscccccsscscccccsccscccccsscscccccsccscccccsccscccc" />
  </g>
</svg>
