<?xml version="1.0" encoding="UTF-8" standalone="no"?>
<!-- Created with Inkscape (http://www.inkscape.org/) -->
<svg id="svg4589" xmlns:rdf="http://www.w3.org/1999/02/22-rdf-syntax-ns#" xmlns="http://www.w3.org/2000/svg" xmlns:osb="http://www.openswatchbook.org/uri/2009/osb" height="142.67mm" width="430.97mm" version="1.1" xmlns:cc="http://creativecommons.org/ns#" xmlns:xlink="http://www.w3.org/1999/xlink" viewBox="0 0 1527.0681 505.52836" xmlns:dc="http://purl.org/dc/elements/1.1/">
 <defs id="defs4591">
  <pattern id="pattern5709" xlink:href="#Polkadots-large" patternTransform="matrix(15.873 0 0 15.873 -132.22 -259.91)"/>
  <pattern id="pattern4914" xlink:href="#Polkadots-large" patternTransform="matrix(10 0 0 10 -488.17 -0.5)"/>
  <pattern id="pattern4912" xlink:href="#Polkadots-large" patternTransform="matrix(10 0 0 10 -432.54 -0.5)"/>
  <pattern id="pattern4910" xlink:href="#Polkadots-large" patternTransform="matrix(10 0 0 10 -372.87 -0.5)"/>
  <pattern id="pattern4908" xlink:href="#Polkadots-large" patternTransform="matrix(10 0 0 10 -310.07 -0.5)"/>
  <pattern id="pattern4906" xlink:href="#Polkadots-large" patternTransform="matrix(10 0 0 10 -239.83 .062502)"/>
  <pattern id="Polkadots-large" height="10" width="10" patternUnits="userSpaceOnUse" patternTransform="translate(0) scale(10)">
   <g>
    <circle id="circle5356" cy=".81" cx="2.567" r=".45" fill="black"/>
    <circle id="circle5358" cy="2.33" cx="3.048" r=".45" fill="black"/>
    <circle id="circle5360" cy="2.415" cx="4.418" r=".45" fill="black"/>
    <circle id="circle5362" cy="3.029" cx="1.844" r=".45" fill="black"/>
    <circle id="circle5364" cy="1.363" cx="6.08" r=".45" fill="black"/>
    <circle id="circle5366" cy="4.413" cx="5.819" r=".45" fill="black"/>
    <circle id="circle5368" cy="4.048" cx="4.305" r=".45" fill="black"/>
    <circle id="circle5370" cy="3.045" cx="5.541" r=".45" fill="black"/>
    <circle id="circle5372" cy="5.527" cx="4.785" r=".45" fill="black"/>
    <circle id="circle5374" cy="5.184" cx="2.667" r=".45" fill="black"/>
    <circle id="circle5376" cy="1.448" cx="7.965" r=".45" fill="black"/>
    <circle id="circle5378" cy="5.049" cx="7.047" r=".45" fill="black"/>
    <circle id="circle5380" cy=".895" cx="4.34" r=".45" fill="black"/>
    <circle id="circle5382" cy=".34" cx="7.125" r=".45" fill="black"/>
    <circle id="circle5384" cy="1.049" cx="9.553" r=".45" fill="black"/>
    <circle id="circle5386" cy="2.689" cx="7.006" r=".45" fill="black"/>
    <circle id="circle5388" cy="2.689" cx="8.909" r=".45" fill="black"/>
    <circle id="circle5390" cy="4.407" cx="9.315" r=".45" fill="black"/>
    <circle id="circle5392" cy="3.87" cx="7.82" r=".45" fill="black"/>
    <circle id="circle5394" cy="5.948" cx="8.27" r=".45" fill="black"/>
    <circle id="circle5396" cy="7.428" cx="7.973" r=".45" fill="black"/>
    <circle id="circle5398" cy="8.072" cx="9.342" r=".45" fill="black"/>
    <circle id="circle5400" cy="9.315" cx="8.206" r=".45" fill="black"/>
    <circle id="circle5402" cy="9.475" cx="9.682" r=".45" fill="black"/>
    <circle id="circle5404" cy="6.186" cx="9.688" r=".45" fill="black"/>
    <circle id="circle5406" cy="6.296" cx="3.379" r=".45" fill="black"/>
    <circle id="circle5408" cy="8.204" cx="2.871" r=".45" fill="black"/>
    <circle id="circle5410" cy="8.719" cx="4.59" r=".45" fill="black"/>
    <circle id="circle5412" cy="9.671" cx="3.181" r=".45" fill="black"/>
    <circle id="circle5414" cy="7.315" cx="5.734" r=".45" fill="black"/>
    <circle id="circle5416" cy="6.513" cx="6.707" r=".45" fill="black"/>
    <circle id="circle5418" cy="9.67" cx="5.73" r=".45" fill="black"/>
    <circle id="circle5420" cy="8.373" cx="6.535" r=".45" fill="black"/>
    <circle id="circle5422" cy="7.154" cx="4.37" r=".45" fill="black"/>
    <circle id="circle5424" cy="7.25" cx=".622" r=".45" fill="black"/>
    <circle id="circle5426" cy="5.679" cx=".831" r=".45" fill="black"/>
    <circle id="circle5428" cy="8.519" cx="1.257" r=".45" fill="black"/>
    <circle id="circle5430" cy="6.877" cx="1.989" r=".45" fill="black"/>
    <circle id="circle5432" cy="3.181" cx=".374" r=".45" fill="black"/>
    <circle id="circle5434" cy="1.664" cx="1.166" r=".45" fill="black"/>
    <circle id="circle5436" cy=".093" cx="1.151" r=".45" fill="black"/>
    <circle id="circle5438" cy="10.093" cx="1.151" r=".45" fill="black"/>
    <circle id="circle5440" cy="4.451" cx="1.302" r=".45" fill="black"/>
    <circle id="circle5442" cy="3.763" cx="3.047" r=".45" fill="black"/>
   </g>
  </pattern>
 </defs>
 <metadata id="metadata4594">
  <rdf:RDF>
   <cc:Work rdf:about="">
    <dc:format>image/svg+xml</dc:format>
    <dc:type rdf:resource="http://purl.org/dc/dcmitype/StillImage"/>
    <dc:title/>
   </cc:Work>
  </rdf:RDF>
 </metadata>
 <g id="layer1" transform="translate(458.34 -99.872)">
  <g id="g6041" transform="translate(-45.457)" stroke="#000000">
   <g stroke-width="10">
    <path id="path4864" d="m-201.1 308.95h19.5v87.375h-19.5v-34.375h-34.75v34.375h-19.5v-87.375h19.5v36.5h34.75v-36.5z" fill="url(#pattern4914)"/>
    <path id="path4866" d="m7.9776 308.95v17.375h-43.5v18h39.125v16.625h-39.125v18.125h44.875v17.25h-64.375v-87.375h63z" fill="url(#pattern4912)"/>
    <path id="path4868" d="m135.93 396.32v-87.375h19.5v70h37.25v17.375h-56.75z" fill="url(#pattern4910)"/>
    <path id="path4870" d="m319.27 396.32v-87.375h19.5v70h37.25v17.375h-56.75z" fill="url(#pattern4908)"/>
    <path id="path4872" d="m574.47 352.76q0-11.75-7.5-20t-18.5-8.25q-10.875 0-18.375 8.25t-7.5 20q0 11.625 7.5 19.875 7.5 8.125 18.375 8.125 11 0 18.5-8.125 7.5-8.25 7.5-19.875zm6.625 32.125q-13.25 12.875-32.625 12.875t-32.625-12.875q-13.25-13-13.25-32.25t13.25-32.125q13.25-13 32.625-13t32.625 13q13.25 12.875 13.25 32.125t-13.25 32.25z" fill="url(#pattern4906)"/>
   </g>
   <path id="path4916" stroke-linejoin="round" d="m772.8 270.9a14.486 14.486 0 0 0 -14.484 14.484 14.486 14.486 0 0 0 14.484 14.487 14.486 14.486 0 0 0 14.487 -14.487 14.486 14.486 0 0 0 -14.487 -14.484zm131.98 0a14.486 14.486 0 0 0 -14.487 14.484 14.486 14.486 0 0 0 14.487 14.487 14.486 14.486 0 0 0 14.484 -14.487 14.486 14.486 0 0 0 -14.484 -14.484zm-182.5 79.186c16.161 48.886 62.299 84.289 116.51 84.289 54.216 0 100.35-35.403 116.51-84.289h-24.485c-14.988 36.03-50.471 61.268-92.027 61.268s-77.043-25.237-92.03-61.268h-24.485z" stroke-width="12.698" fill="url(#pattern5709)"/>
  </g>
 </g>
</svg>
